/* XPM */
static char *result[] = {
/* columns rows colors chars-per-pixel */
"40 40 192 2 ",
"   c #0A0202",
".  c #050606",
"X  c #1C130E",
"o  c #1B1412",
"O  c #19151A",
"+  c #1C1C1C",
"@  c #161615",
"#  c #080B13",
"$  c #231D1D",
"%  c #201712",
"&  c #17201F",
"*  c #25231E",
"=  c #011D2C",
"-  c #1C1D20",
";  c #221F24",
":  c #2C1F20",
">  c #1B2121",
",  c #232424",
"<  c #252529",
"1  c #292728",
"2  c #2C2B2C",
"3  c #272828",
"4  c #302A2A",
"5  c #34332D",
"6  c #3D362E",
"7  c #2E3136",
"8  c #343333",
"9  c #3C3C3C",
"0  c #373837",
"q  c #403736",
"w  c #5A462C",
"e  c #6E573D",
"r  c #765538",
"t  c #684224",
"y  c #0E3E58",
"u  c #3C3C42",
"i  c #14515B",
"p  c #3D5146",
"a  c #234D5E",
"s  c #344B57",
"d  c #06567A",
"f  c #0A4767",
"g  c #215C79",
"h  c #355861",
"j  c #444344",
"k  c #4B4B4B",
"l  c #4E524B",
"z  c #5A584F",
"x  c #404E52",
"c  c #555555",
"v  c #5C5C5D",
"b  c #6B5643",
"n  c #685A50",
"m  c #7C684F",
"M  c #6F605A",
"N  c #786B5A",
"B  c #465E61",
"V  c #585F68",
"C  c #646464",
"Z  c #6A6B6A",
"A  c #686766",
"S  c #797A6E",
"D  c #6D7074",
"F  c #747374",
"G  c #7E7C7C",
"H  c #844F31",
"J  c #865B30",
"K  c #986636",
"L  c #8F754E",
"P  c #8D7A5F",
"I  c #9B7D5B",
"U  c #92724A",
"Y  c #A87541",
"T  c #807261",
"R  c #967A63",
"E  c #BC804A",
"W  c #A5815C",
"Q  c #BB885D",
"!  c #8C8571",
"~  c #85837B",
"^  c #9B8778",
"/  c #998869",
"(  c #B39A78",
")  c #C4814A",
"_  c #D4955A",
"`  c #E49A56",
"'  c #F7BE5F",
"]  c #C39D77",
"[  c #DCA566",
"{  c #C2A071",
"}  c #DBB27D",
"|  c #D6AD75",
" . c #FFAE65",
".. c #E1B16B",
"X. c #F8B870",
"o. c #FDC369",
"O. c #FAC76B",
"+. c #FFC873",
"@. c #FFD778",
"#. c #085D90",
"$. c #046B9D",
"%. c #007EB7",
"&. c #076DAA",
"*. c #006BC1",
"=. c #0975CB",
"-. c #037BD5",
";. c #917F86",
":. c #078CAF",
">. c #00ABBC",
",. c #679C9E",
"<. c #7B9F9F",
"1. c #63A0A4",
"2. c #70A1A4",
"3. c #0483CA",
"4. c #018BD9",
"5. c #029CDD",
"6. c #0396DA",
"7. c #0B93C2",
"8. c #06A1C7",
"9. c #00AEDF",
"0. c #0DB8D6",
"q. c #10B9D8",
"w. c #0494E5",
"e. c #0399E8",
"r. c #098BE1",
"t. c #06A9EA",
"y. c #00B6E3",
"u. c #00B7E8",
"i. c #07BDF3",
"p. c #11C8DB",
"a. c #01CFEF",
"s. c #00D2E4",
"d. c #04C5F2",
"f. c #07D7F9",
"g. c #00E1EE",
"h. c #0AE4FE",
"j. c #0AF1FF",
"k. c #838383",
"l. c #8C8C8D",
"z. c #95928C",
"x. c #8E8F90",
"c. c #8E9191",
"v. c #849B9E",
"b. c #929292",
"n. c #9C9B9C",
"m. c #B39F83",
"M. c #B2A495",
"N. c #BCAC94",
"B. c #AAA188",
"V. c #8AA3A7",
"C. c #A3A3A3",
"Z. c #ADADAD",
"A. c #AEB1B1",
"S. c #B3B4B4",
"D. c #BCBCBC",
"F. c #BBBDB5",
"G. c #BEB9A6",
"H. c #C0A580",
"J. c #D3AB86",
"K. c #DCBE8D",
"L. c #D0BA9E",
"P. c #E0BD8D",
"I. c #C3B8B4",
"U. c #D2C094",
"Y. c #F0C88F",
"T. c #E6C694",
"R. c #EFD09D",
"E. c #F2C395",
"W. c #F8D9A7",
"Q. c #FFE0A3",
"!. c #FFF1B9",
"~. c #BCBBC4",
"^. c #C4C4C3",
"/. c #CCCBCB",
"(. c #D4CFCE",
"). c #C8D1CC",
"_. c #D4D4D4",
"`. c #D5D9D9",
"'. c #DBDBDB",
"]. c #DCDFE4",
"[. c #DEE2E5",
"{. c #E3E3E4",
"}. c #EEEEEE",
"|. c #E3E6E9",
" X c #EDEEF1",
".X c #E4ECF0",
"XX c #EFF1F2",
"oX c #F3F3F3",
"OX c #FBF6F5",
"+X c #F6F9FA",
"@X c #FCFCFC",
"#X c #F9F8F8",
/* pixels */
"@X@X}.@X@X}.oX@XoX}.@X@X}.oX@X}.oX@XoX}.@X@X}.@X@X}.oX@XoX}.@X@X}.oX@X}.oX@XoX}.",
"@X@X}.@X@X}.oX@XoX}.@X@X}.@X@XoXoX@XoX}.@X@X}.oX@X}.oX@XoXoX@X@X}.@X@XoXoX@XoX}.",
"}.oX@XoX}.@X@X}.@X@X}.oX@XoX}.@X@X}.@X@XXXoX@XoX}.@X@X}.@X@X}.oX@XoXoX@X@X}.oX@X",
"}.oX@XoX}.@X@X}.@X@X}.oX@XoXoX|.F.@X|.k.oXoX@XoXoX@XoX}.@X@X}.oX@XoX}.@X@X}.@X@X",
"@X@X}.@X@X}.oX@XoXoX@X@X|.oX@XS.2 @XS.# C.@X X+X@XoXoX@XoX}.@X+X}.@X@X}.oX@XoX}.",
"@XoX}.@X@XoXoX@XoX}.@X@X/.v @Xl.+ ^.<.7 k oXn.[.@X}.oX@XoX}.@X#X}.@X@X}.oX@XoX}.",
"}.oX@XoXoX@X@X}.#X@X}.OXS.+ b.v 9 C j w u A.v ;.@X@X@X}.@X@X}.oX@XoX}.@X@X}.@X@X",
"}.oX@XoX}.@X@X}.OX@X{.OX<.q 9 + c 1 ; j k n k j oX'.'.oX#X@XoXoX@XoXoX@X@X}.@X@X",
"@X@X}.@X@X}.oX@XoXoXoXn.k 0 k > k 2 3 9 k , 2 u D.k C.@XoX}.@X@X}.@X@X}.oX@XoX}.",
"@X@X}.oX@XXXoX@XoXoX}.2 @ 9 j 3 0 8 2 4 j ; 2 j 8 8 z.@XXX}.@X@X}.@X@X}.oX@XoX}.",
"oXoX@XoX}.@X#X}.@X@X_.8 2 2 8 * 4 2 1 2 8 1 4 0 , j F @XoX@X}.oX@XoX X@X@X}.oX@X",
"}.oX@XoX}.@X@X}.oX@XD.+ < , 2 , 3 3 1 1 1 2 2 2 8 9 A +X@X@X}.oX@XoX}.@X@X}.@X@X",
"@X@X}.@X@X}.oX@XoX@XA.  % X X X o O O + - - $ - , + G @X}.}.@X@X}.@X@X}.oX@XoX}.",
"@XoX}.@X@X}.oX@XoX@Xb.= y f g #.#.&.:.7.8.0.q.q.p.>.v.@XoX}.@X@X}.@X@X}.oX@XoX}.",
"oXoX@XoXoX@X@X}.+X@X,.y.w.w.e.w.4.w.t.i.f.f.f.h.j.g.<.OX#X@X}.oX@XoXoX@X@X}.@X@X",
"}.oX@XoX}.@X@X}.+X@X1.y.=.=.3.4.=.-.w.t.i.d.f.f.h.s.V.@XoX@X}.oX@XoX}.@X@X}.@X@X",
"@X@X}.@X@X}.oX@XoXOX2.y.4.w.t.3.*.-.r.4.6.5.9.d.a.:.S.@X}.}.@X@X}.@X@X}.oX@XoX}.",
"@XoX}.@X@XoXoX@X}.@Xv.8.:.$.g J N s s Z S ! S p m r `.@XoX}.@X#X}.@X@X}.oX@XoXoX",
"}.oX@XoXoX@XoX}.oX@X~.n Y ) H r J K Y Q T.W.I K J ! @X}.@X@X}.oX@XoX}.@X@X}.@X@X",
"}.oX@XoXoX@X@XoX@X@X[.R `  .[ z.z.S e t ( m.r n Z ^.@X}.@X@X}.oX@XoX}.@X@X}.oX@X",
"@X@X}.@X@X}.oX@XoX Xm.} ] ` o.U.@X@XV F W.K.(..X~ (.@X@XoX}.@X@X}.@X@X}.oX@XoX}.",
"@X@X}.oX@X}.oX@XoX XN.Y.K.X.o.O.| J.J.E.R.W.L.L.B.[.oX@XoX}.@X@X}.@X@X}.oX@XoX}.",
"}.oX@XoX}.@X+X}.@X@XF.K.T._ +.O.+.o.X.W q N W.!.I.oX@X}.@X@X}.oX@XoXoX@X@X}.@X@X",
"oXoX@XoX}.@X@X}.#X@X XM.M./ o.@...L 6 , 9 9 z ! z.@X@X|.oX@XoXoX@XoX}.@XoX}.@X@X",
"@X@X}.@X@X}.oX@XoX}.@XoX|. X/ w $ # ; 5 8 l V 1 n.@Xn.S.@X}.@X@X}.@X@X}.oX@XoX}.",
"@XoX}.@X@X}.oX@XoXoX@X@X}.@XoXD , @ + 1 4 q 2 k.@Xn.v }.@X}.@XoX}.@X@X}.oX@XoXoX",
"oXoX@XoX}.@X@X}.oX@XoXoX@XoXoX@X{.k # @ - 9 D.@Xk.v A.@X@X@XXXoX@XoXoX@X@X}.oX@X",
"}.oX@XoXoX@X@X}.@X@X}.oX@XoX}.@X{.j , 2 2 c @Xb.A z._.oX+X@X}.oX@XoX}.@X@X}.@X@X",
"@X@X}.@X@X}.oX@XoXoX@X#X X+X@X@Xz.1 , > $ 8 A.T c.l.@X@XoX}.@X@X}.@X@X}.oX@XoX}.",
"@XoX}.@X@X}.oX@XoX}.@X@X}.#X@XXXc O $ 1 < 4 b ( z.'.#X@XoX}.@X#X}.@X@X}.oX@XoX}.",
"}.oX@XoX}.@X@X}.#X@X}.oX@XoX+X(.I { x a k h I P |.@X#X}.@X@XoXoX@XoXoX@X@X}.#X@X",
"oXoX@XoX}.@X@X}.@X@X XoX@X X+XI.[ +.B d l i n D.+X@XoX}.@X@X}.oX@XoX}.@X@X}.@X@X",
"@X@X}.oX@X}.oX@XoX X@X@X}.oX@X{.^ ^ o   * k.A.@X#X}.oX@XoX}.@X#X}.oX@X}.oX@XoXoX",
"@X@X}.@X@XoXoX@XoX}.@XOX{.}.}.`.[.~.- 3 2 /.`._.{.`.{.oX}.}.@XOX}.@X@X}.oX@XoX}.",
"}.oX@XoX}.@XoX}.#X@X{.'.]./.D.F.D.A . $ O 5 n.A.A.^./.(.{.}.|.}.@XoXoX@X@X}.@X@X",
"}.oX@XoX}.@X@X}.oXoX'.`._.D.Z.Z.C.k.c C v C b.n.C.S.D.D.`.{.{.}.@XoXoX@XoX}.@X@X",
"@X@X}.oX@XoXoX@XoX|.}.|._.(./.S.Z.S.Z.C.Z.Z.C.A.F.F.^.'.'.{.oXOX}.@X@X}.oX@XoXoX",
"@X@X}.@X@X}.oX@XoX}.@XoX{.|.|._._.`.^.^.(.(.^._.'.`.{. X}.|.@X@X}.oX@XoXoX@XoX}.",
"}.oX@XoXoX@X@X}.OX@XoXoX@X}.}.@XoX}.oX@X|.}.@X}.}.@X#X}.OX@X XoX@XoXoX@X@X}.oX@X",
"}.oX@XoX}.@X@X}.@X@X}.oX@XoX}.@XoX}.+X@X}.oX@XoX}.@X#X}.@X@X}.oX@XoX}.@X@X}.@X@X"
};
