/* XPM */
static char *result[] = {
/* columns rows colors chars-per-pixel */
"40 40 213 2 ",
"   c #260300",
".  c #371508",
"X  c #361C16",
"o  c #362115",
"O  c #3F2D14",
"+  c #3A2719",
"@  c #383419",
"#  c #302E0D",
"$  c #2C1D2B",
"%  c #3E2925",
"&  c #441C0A",
"*  c #511B0D",
"=  c #4B250C",
"-  c #53260C",
";  c #55290F",
":  c #582B08",
">  c #4D3A0E",
",  c #452917",
"<  c #452C1D",
"1  c #4A2D1C",
"2  c #472616",
"3  c #542B14",
"4  c #5B2B15",
"5  c #4C311E",
"6  c #413818",
"7  c #54321E",
"8  c #5C331E",
"9  c #523F11",
"0  c #6A2B0E",
"q  c #672A09",
"w  c #6E2D10",
"e  c #623414",
"r  c #6F3311",
"t  c #66351C",
"y  c #64391F",
"u  c #673C1A",
"i  c #733513",
"p  c #783612",
"a  c #7C3A14",
"s  c #743B1B",
"d  c #7D3E1B",
"f  c #773A17",
"g  c #432D23",
"h  c #442B29",
"j  c #542E23",
"k  c #4D3322",
"l  c #4A3728",
"z  c #533424",
"x  c #5B3924",
"c  c #5B3D2C",
"v  c #563D2A",
"b  c #493936",
"n  c #483630",
"m  c #5A3D35",
"M  c #633B23",
"N  c #6C3D22",
"B  c #643E2A",
"V  c #683F28",
"C  c #763F21",
"Z  c #603E35",
"A  c #34450F",
"S  c #4A481A",
"D  c #564617",
"F  c #4E6518",
"G  c #424222",
"H  c #504029",
"J  c #4E5720",
"K  c #5D4237",
"L  c #5D443A",
"P  c #564133",
"I  c #6C4226",
"U  c #64412B",
"Y  c #6A432C",
"T  c #7C4525",
"R  c #71442B",
"E  c #7C4D2E",
"W  c #774729",
"Q  c #6C4532",
"!  c #6A4C3B",
"~  c #644737",
"^  c #744B34",
"/  c #784E38",
"(  c #7A5138",
")  c #695E3E",
"_  c #576323",
"`  c #5F6334",
"'  c #567734",
"]  c #4C7C3E",
"[  c #6D6F30",
"{  c #573F50",
"}  c #453648",
"|  c #594841",
" . c #5A4F53",
".. c #694C43",
"X. c #6D5346",
"o. c #715A4B",
"O. c #785B47",
"+. c #695D54",
"@. c #735F50",
"#. c #634658",
"$. c #7C6559",
"%. c #73654D",
"&. c #6D516F",
"*. c #735977",
"=. c #7A6C67",
"-. c #823E19",
";. c #813B16",
":. c #85431D",
">. c #8B451D",
",. c #844621",
"<. c #8C4720",
"1. c #8E4A22",
"2. c #894E2A",
"3. c #924C23",
"4. c #965026",
"5. c #9D552A",
"6. c #825234",
"7. c #855639",
"8. c #935A37",
"9. c #845528",
"0. c #A1623C",
"q. c #835C4A",
"w. c #83614B",
"e. c #9F6D4D",
"r. c #846555",
"t. c #8C6A54",
"y. c #836B5C",
"u. c #8B6D5A",
"i. c #866555",
"p. c #916E5B",
"a. c #936C57",
"s. c #8F735F",
"d. c #97765E",
"f. c #A56E4C",
"g. c #AF7E49",
"h. c #A06D52",
"j. c #A47E5D",
"k. c #856960",
"l. c #8A7768",
"z. c #917462",
"x. c #9B7A63",
"c. c #987B68",
"v. c #847E7F",
"b. c #A27D64",
"n. c #A17F6B",
"m. c #598E19",
"M. c #5F9320",
"N. c #558421",
"B. c #659D21",
"V. c #6C9734",
"C. c #66882F",
"Z. c #76B728",
"A. c #6EA036",
"S. c #70AB30",
"D. c #7EC434",
"F. c #769F5C",
"G. c #81BC2D",
"H. c #82CE29",
"J. c #9D816C",
"K. c #96866F",
"L. c #AC8164",
"P. c #AA866A",
"I. c #A9856A",
"U. c #A98974",
"Y. c #B28C74",
"T. c #B48F79",
"R. c #B7947A",
"E. c #C89B7E",
"W. c #6F768E",
"Q. c #938787",
"!. c #A08D83",
"~. c #A89488",
"^. c #B99A81",
"/. c #A69A94",
"(. c #B9A799",
"). c #ADA6A1",
"_. c #B2ABA8",
"`. c #AEAEB1",
"'. c #B7B4B2",
"]. c #BCB9A7",
"[. c #C3AB97",
"{. c #C2B49D",
"}. c #CFBAA7",
"|. c #C7B6A5",
" X c #C7BBB5",
".X c #CFC0AF",
"XX c #C8C1BB",
"oX c #D2C4BC",
"OX c #D6CCBD",
"+X c #D6C7B3",
"@X c #DDD6BF",
"#X c #CCC9C7",
"$X c #D4CCC6",
"%X c #DDD6CC",
"&X c #DCDBDE",
"*X c #DAD5D3",
"=X c #CCCED6",
"-X c #E5D6CA",
";X c #E2DBD6",
":X c #E4E3DF",
">X c #EAE2DB",
",X c #D6D9E3",
"<X c #ECEBE5",
"1X c #EEEEEC",
"2X c #E9E6E6",
"3X c #EFF0EC",
"4X c #F2F1EE",
"5X c #EFF0F1",
"6X c #F6F6F6",
"7X c #F7F7F8",
"8X c #F7F9FA",
"9X c #FCFDFD",
"0X c #F8F7F8",
/* pixels */
"6X6X6X6X7X6X6X6X6X6X6X6X6X6X6X6X6X6X6X6X6X6X6X6X6X6X6X6X6X6X6X6X6X6X6X6X6X6X6X6X",
"6X6X6X6X6X6X6X6X6X6X6X6X0X6X6X7X6X0X6X6X7X8X7X7X6X6X6X6X6X6X6X6X6X6X6X6X6X6X6X6X",
"6X6X6X6X6X6X6X7X6X6X6X6X6X6X0X6X6X3X4X1X3X<X<X3X6X8X6X6X6X6X6X6X6X6X6X6X6X6X9X6X",
"6X6X6X6X6X6X6X6X6X6X6X6X6X0X4X:XOX@X{..X.X{.+X@X%X<X6X8X6X6X6X6X6X6X6X6X6X6X7X6X",
"6X6X6X7X7X6X6X6X6X6X6X6X6X-X}.[.U.P.I.b.j.I.P.P.R.[.}.3X6X6X6X6X6X6X6X6X6X6X6X6X",
"6X6X6X6X6X6X7X6X6X6X6X6X7X(.b.I.I.x.s.s.u.u.d.U.Y.b.J.<X9X6X6X6X6X6X6X6X6X6X6X6X",
"6X6X6X6X7X6X6X6X6X6X6X6X>XU.b.i.K % % b % l g n ! c.d.(.4X7X6X6X6X6X6X6X6X6X7X6X",
"6X6X6X6X6X6X6X6X6X6X6X4Xf.d.n.! b L U W T E ..L 8 s.x.E T.9X6X6X6X6X6X6X6X6X6X6X",
"6X6X6X6X6X6X6X6X0X6X9X%XI O.a.| ~ -.3.5.8.q.8.8.Q r.i.U y.9X6X6X6X6X6X6X6X6X6X6X",
"6X6X6X6X6X6X6X6X6X7X9XoXM y.I.| V -.1.3.6.E R / f u.x.M y.9X6X6X6X6X7X6X6X6X6X6X",
"6X6X6X6X6X6X6X6X6X6X9X$X8 w.Y.L C :.3.3.4.3.1.3.Y $.c.z y.9X6X6X7X6X6X6X7X6X6X7X",
"6X6X6X6X6X0X6X6X6X0X<XY.I t.R.L C -.3.3.3.1.3.4.B @.c.v / ;X0X6X6X6X6X6X6X6X6X6X",
"6X6X6X6X6X6X6X6X6X8XE.2.x r.^.~ R ,.4.4.4.1.<.3.M s.I.v 8 K.9X0X6X6X6X6X6X6X6X6X",
"6X6X6X0X6X6X6X6X6X6Xt.Y x $.^.I m ,.1.3.4.<.>.<.c y.P.< U 8.R.1X0X6X6X7X6X6X6X6X",
"6X6X6X6X6X6X0X6X6X6Xp.Q 2 o.R.Y 8 T 4.3.4.,.:.>.I c.K.5 x Q W $X9X6X6X6X6X0X6X6X",
"6X6X6X6X6X6X6X6X6X7Xx.N z X.R.Y t <.1.1.3.d :.,.m +.+.% z Q /  X9X6X6X6X6X6X6X6X",
"0X6X6X6X6X6X6X6X6X9XU.M 7 ..T.! M -.1.1.1.:.-.:.t I.b.o 5 U E oX9X6X6X6X6X6X6X6X",
"6X6X6X6X6X6X6X6X1X XY.Q z X.Y.! M a 1.3.>.d a Q m b.d.< 5 c M oX9X6X6X6X6X6X6X6X",
"6X6X6X6X6X6X6X9X}.0.7.( 2 ~ U.U 4 d 1.<.>.f a i 4 n.z.+ 1 c M '.9X4X6X6X6X6X6X6X",
"6X6X6X6X6X6X6X9X[.C Q Y 5 K c.c ; f <.>.>.f f ;.4 c.u.o k c V b.1X6X6X6X6X6X6X6X",
"6X6X6X6X6X6X6X9X~.N Q V 7 K i.z ; 0 a >.:.p f i 3 u.O.o < z U I $X9X6X6X6X7X6X6X",
"6X6X7X0X6X0X>XE.f./ ^ Z 1 K O.< - t a a a p a r 3 i.O.+ 1 k U N oX9X6X6X6X6X6X6X",
"7X6X7X7X6X9X[.,.7./ ^ M X o.j.H 1 B B C a p i q j s.d.+ + g c M (.9X6X6X6X6X6X6X",
"6X6X6X6X6X9X~.M Q R Y c , L t.~ 5 x t t p r r q z r.q.+ o 5 c Y e.-X9X7X6X6X6X6X",
"6X6X6X6X6X9X~.N / ^ Q M # l p.L 2 e t w w q q q j z.%.O 1 z M Y E f.L.;X9X6X6X6X",
"6X6X6X6X4X9X~.z B U K z @ A J S @ 6 S D D > D > 6 ` J # @ m ..~ m K K $X9X6X6X6X",
"6X6X6X6X6X9X:X`.Q.H 7 v ' F N.M.B.Z.Z.H.H.Z.Z.B.B.m.F _ H ~ l m Q._.3X0X6X6X6X6X",
"6X6X6X7X6X6X0X9X9XL.0.7.o @ ' A.S._ 6 V.G.G.G.' V.C.1 o M E 6.*X9X9X8X6X6X6X6X6X",
"6X6X6X6X6X6X6X6X5Xq.4 . n +.  @ 1 * * . . , O , @ S n b < k ).6X4X6X6X6X6X0X6X6X",
"6X6X6X6X6X6X6X6X0XQ.$.+.'.#X% . X V : X - . & ; & = =.0X_.(.9X6X6X6X6X6X6X6X6X6X",
"6X6X6X6X6X6X6X6X0X0X9X!.o.2X} . { *.j = e = 4 4 h $ XX9X6XL y.9X6X6X6X6X6X6X6X6X",
"6X6X6X6X6X6X6X6X6X6X0X#X/.6X#X .#.$.$...M . - X | '.6X6X1X).*X0X0X6X6X6X6X6X6X6X",
"6X6X6X6X6X6X6X6X6X6X6X9X9X6X9X].F.) r.~. X_.Q.Q.,X9X8X5X6X9X9X6X6X6X6X6X6X6X6X6X",
"6X6X0X6X6X6X6X6X6X6X6X6X6X0X2X%.] o.&.) O.W.K.l.K.Q.=X9X6X6X6X6X6X6X6X6X6X6X0X6X",
"6X6X6X6X6X7X6X6X0X6X6X6X6X6X9X#X1 5 l.,X&X$X9.I u `.2X8X6X6X6X6X6X6X6X6X6X6X6X6X",
"6X6X6X6X6X6X6X6X6X6X6X6X6X7X7X0X).).*X9X9X<X+X$XL.6X9X5X6X6X6X6X6X6X6X6X6X0X6X6X",
"6X6X6X7X6X6X6X6X6X6X6X7X6X6X6X6X9X9X7X6X6X6X9X6X%X4X6X6X6X6X6X6X6X6X6X6X6X6X6X6X",
"0X6X6X6X6X6X6X6X6X6X6X6X6X6X6X6X6X6X6X6X6X6X6X7X0X6X6X6X6X6X6X6X6X6X6X6X6X6X0X6X",
"6X6X6X6X6X6X6X0X6X7X6X6X7X6X6X6X6X6X6X6X6X6X6X6X6X6X6X6X6X6X6X6X6X6X6X6X6X6X6X6X",
"6X6X6X6X6X6X6X6X6X6X6X6X6X6X6X6X6X6X6X6X6X6X6X6X6X6X6X6X6X6X6X6X6X6X6X6X6X0X6X6X"
};
