/* XPM */
static char *result[] = {
/* columns rows colors chars-per-pixel */
"40 40 129 2 ",
"   c #070606",
".  c #0D0C0B",
"X  c #110F0E",
"o  c #11100F",
"O  c #151412",
"+  c #181715",
"@  c #1A1916",
"#  c #1E1C1A",
"$  c #201F1C",
"%  c #23211E",
"&  c #262522",
"*  c #292723",
"=  c #2C2A25",
"-  c #2E2D29",
";  c #312E29",
":  c #35322D",
">  c #39362F",
",  c #343331",
"<  c #393631",
"1  c #3D3A34",
"2  c #3C3A39",
"3  c #413E37",
"4  c #423F38",
"5  c #45423A",
"6  c #48453D",
"7  c #4B483F",
"8  c #474542",
"9  c #494741",
"0  c #4D4941",
"q  c #4D4C49",
"w  c #524E45",
"e  c #524F48",
"r  c #555147",
"t  c #555148",
"y  c #59554B",
"u  c #5D594E",
"i  c #595750",
"p  c #5C5A54",
"a  c #5C5B5A",
"s  c #605B4F",
"d  c #625E53",
"f  c #605E5A",
"g  c #686457",
"h  c #64625C",
"j  c #6A665C",
"k  c #6E695C",
"l  c #716C5E",
"z  c #656462",
"x  c #686661",
"c  c #6C6A64",
"v  c #6D6C6A",
"b  c #726E61",
"n  c #757165",
"m  c #797466",
"M  c #76736C",
"N  c #7A766B",
"B  c #7E796D",
"V  c #777570",
"C  c #7C7973",
"Z  c #7F7E7C",
"A  c #817C6F",
"S  c #827D72",
"D  c #807F7A",
"F  c #868174",
"G  c #888170",
"H  c #83817A",
"J  c #898579",
"K  c #8F897B",
"L  c #938D7E",
"P  c #858481",
"I  c #8B8A85",
"U  c #918E86",
"Y  c #908F8C",
"T  c #979284",
"R  c #9B9584",
"E  c #96948D",
"W  c #9B978C",
"Q  c #9E9A8D",
"!  c #989793",
"~  c #9C9A93",
"^  c #9F9E9B",
"/  c #A39D8D",
"(  c #A29E93",
")  c #A09F9E",
"_  c #A3A096",
"`  c #A9A494",
"'  c #A5A39C",
"]  c #ABA698",
"[  c #ABA89F",
"{  c #B2AC9C",
"}  c #A5A4A2",
"|  c #ACAAA5",
" . c #AEADAC",
".. c #B0ACA0",
"X. c #B0AEAB",
"o. c #B5B0A2",
"O. c #B9B4A3",
"+. c #B5B2AD",
"@. c #B9B6AB",
"#. c #BDB9AD",
"$. c #B7B5B1",
"%. c #B8B7B3",
"&. c #BAB9B6",
"*. c #BEBDBA",
"=. c #C3C0B3",
"-. c #C3C1BE",
";. c #CBC7BE",
":. c #CDC9BE",
">. c #D2CCBB",
",. c #C8C6C0",
"<. c #CECCC4",
"1. c #CDCCCA",
"2. c #D5D2C7",
"3. c #D3D1CD",
"4. c #D4D3D2",
"5. c #D9D7D3",
"6. c #DCDBD6",
"7. c #DCDCDA",
"8. c #E1DFDB",
"9. c #E6E4DE",
"0. c #E8E6DE",
"q. c #E5E5E3",
"w. c #E8E7E5",
"e. c #E9E9E7",
"r. c #EDECEB",
"t. c #F0EFED",
"y. c #F1F0EE",
"u. c #F3F3F3",
"i. c #F8F8F7",
/* pixels */
"u.u.u.u.u.u.u.u.u.u.u.u.8.<.>.] { <.r.y.u.u.u.u.u.u.u.u.u.u.u.u.u.u.u.u.u.u.u.u.",
"u.u.u.u.u.u.u.u.u.u.u.u.' j l d d d / 0.u.u.u.u.u.u.u.u.u.u.u.u.u.u.u.u.u.u.u.u.",
"u.u.u.u.u.u.u.u.u.u.u.u.2.d : & : 4 w L 1.u.u.u.u.u.u.u.u.u.u.u.u.u.u.u.u.u.u.u.",
"u.u.u.u.u.u.u.u.r.-.u.r.O.G y = $ @ @ $ z r.u.u.u.u.u.u.u.u.u.u.u.u.u.u.u.u.u.u.",
"u.u.u.y.u.u.u.9._ j | ! y 6 > & $ $ & e | u.$.D X.8.y.u.u.u.u.u.u.u.u.u.u.u.u.u.",
"u.u.u.u.u.u.0.K u p w 1 > = @ % & 7 S 8.e.4.C 2 p I e.i.u.i.u.u.u.i.u.u.u.u.u.u.",
"u.u.u.u.u.e.{ > 3 T K b y 5 % % % : 5 f a 2 4 8 a C ! $.&.1.4.7.4. .y.u.u.u.u.u.",
"u.u.u.u.u.@.y O p =.R N s 6 ; * & o & x ; + & ; - : * % * ; * , , z 4.q.r.r.y.y.",
"u.u.u.u.q.N = O N { R L R l 3 & % - q b 4 % - 8 = & * X @ - a z I ^ *.*.&.%.| 4.",
"u.u.u.u.5.l $ $ 5 k k K L l 4 1 & % 5 j , + 2 V 4 5 & z  .3.y.u.i.u.u.u.u.r.q.r.",
"u.u.u.u.>.d o 4 0 * 1 6 t d d 6 5 > - , % o $ $ = r V q.i.u.u.u.u.u.u.u.u.u.u.u.",
"u.u.u.r.` : O 3 w w & : * $ 1 1 : < - 2 * . .   : C %.u.u.u.u.u.u.u.u.u.u.u.u.u.",
"u.u.u.9.g + % : 7 4 $ 5 # @ + % & < Y q.} - @ ,  .y.u.u.u.u.u.u.u.u.u.u.u.u.u.u.",
"u.u.u.w.N # 5 r 6 = ; : @ $ O = 3 M e.u.u.4.*.7.u.u.u.u.u.u.u.u.u.y.u.u.u.u.u.u.",
"u.u.u.y.#.6 = > < $ $ @ $ $ % ; 3 +.u.u.u.u.i.u.u.u.u.u.u.u.u.u.u.u.u.u.u.u.u.u.",
"u.u.e.] m < . + & % O $ * $ $ e } r.u.u.u.u.u.u.u.u.u.u.u.u.u.u.u.u.u.u.u.u.u.u.",
"u.i.1.g > % . # = = = = ; - t %.u.u.u.u.u.u.u.u.u.u.u.u.u.u.u.u.u.u.u.u.u.u.u.u.",
"u.u.@.u < @ @ - 4 w 5 4 , : b 8.u.u.u.u.u.u.u.u.u.u.u.u.u.u.u.u.u.u.u.u.u.u.u.y.",
"u.u.~ 6 > # * : 5 6 < < 1 6 k T #.u.u.u.u.u.u.u.u.u.u.u.u.u.u.u.u.u.u.u.u.u.u.u.",
"u.u.1.h q @ O @ * 0 < = $ : y K G +.u.u.u.u.u.u.u.u.u.u.u.u.u.u.u.y.u.u.u.u.u.u.",
"u.u.u.r.7.P < % = 1 1 t - % - w y p 4.u.u.u.u.u.u.u.u.u.u.u.u.u.u.u.u.u.y.u.u.u.",
"u.u.u.u.u.q.T d 5 5 1 0 u O O # ; N 1.u.u.u.u.u.u.u.u.u.u.y.u.u.u.u.u.u.u.u.u.u.",
"u.u.u.u.u.e.o.N 4 6 < 4 t # . . & l ( 6.u.u.u.u.u.u.u.u.u.u.u.u.u.u.u.u.u.u.u.u.",
"u.u.u.u.u.9.o.R y 5 1 5 I Z . . # = ; n <.u.u.u.u.u.u.u.u.u.u.u.u.u.u.u.u.u.u.u.",
"u.u.u.u.u.9.O.` g > : 1 ~ q.v @ . X X & T r.u.u.u.u.u.u.u.u.u.u.u.u.u.u.u.y.u.u.",
"u.u.u.u.u.;.O.Q b 5 5 > ~ i.r.E + . . + N r.u.u.u.u.u.u.u.u.t.u.u.u.u.u.u.u.u.u.",
"u.u.u.u.t.-.F 3 < : 1 r E u.,.d # X . # ~ u.u.u.u.u.u.u.u.u.u.u.u.u.u.u.u.u.u.u.",
"u.u.u.u.r.9.C % @ + > 0 j 7.C : & # & } r.u.u.y.u.u.u.u.u.u.u.u.u.u.u.u.u.u.u.u.",
"u.u.u.r.2.&.t ; & # 2 y ~ t.W 5 - 1 M w.u.u.u.u.u.u.u.u.u.u.u.u.u.u.u.u.u.u.u.u.",
"u.u.u.6.] J 5 * + # , c 6.u.E 5 - 1 ' u.u.u.u.u.u.u.u.y.u.u.u.u.u.u.u.u.u.u.y.u.",
"u.u.6.o.Q k 6 % . 4 I 4.u.u.' < # d 3.u.u.u.u.u.u.u.u.u.u.u.u.u.u.u.u.u.u.u.u.u.",
"u.u.;.@.J r : & c 7.u.i.u.u.+.- # | i.u.u.u.u.u.u.u.u.u.u.u.u.u.u.u.u.u.u.u.u.u.",
"u.t.#.p B d 6 D e.u.u.u.u.u._ > - M 7.u.u.u.u.u.u.u.u.u.u.u.u.u.u.u.u.u.u.u.u.u.",
"u.e.J r 5 t Q w.u.u.u.u.u.r.F ; < : j | 6.u.u.u.u.u.u.u.u.u.u.u.u.u.u.u.y.u.u.u.",
"u.| > % < P 7.u.u.u.u.u.u.y.' x Z P z V -.u.u.u.u.u.u.u.u.u.u.u.u.u.u.u.u.u.u.u.",
"8.h > # Z u.u.u.u.u.u.u.u.u.u.t.u.u.y.y.u.u.u.u.u.u.u.u.u.u.u.u.u.u.u.u.u.u.u.u.",
"1.F g > i 4.i.u.u.u.u.u.u.u.u.u.u.u.u.u.u.u.u.u.u.u.u.u.u.u.u.u.u.u.u.u.u.u.u.u.",
"1.G T m t M 3.u.u.u.u.u.u.u.u.u.u.u.u.u.u.u.u.u.u.u.u.u.u.u.u.u.u.y.u.u.u.u.u.u.",
"e.' B / ] K _ u.u.u.u.u.u.u.u.u.u.u.y.u.u.u.u.u.u.u.u.u.u.u.u.u.u.u.u.u.u.u.u.u.",
"u.u.&.T F M $.u.u.u.u.u.u.u.u.u.u.u.u.u.u.u.u.u.u.u.u.u.u.y.u.u.u.u.u.u.u.u.u.u."
};
