/* XPM */
static char *result[] = {
/* columns rows colors chars-per-pixel */
"40 40 72 1 ",
"  c #DA721E",
". c #FA770D",
"X c #FA780E",
"o c #FA7A0E",
"O c #FB7A0E",
"+ c #E56814",
"@ c #F67910",
"# c #FA7D11",
"$ c #EF8B1D",
"% c #FA8013",
"& c #FB8717",
"* c #FA8815",
"= c #FB8918",
"- c #FA8E18",
"; c #FB8F19",
": c #FB8E1A",
"> c #F88F1C",
", c #FB961E",
"< c #FB971E",
"1 c #FC961C",
"2 c #FA9A1B",
"3 c #FC9919",
"4 c #FA9C1D",
"5 c #FA9F1E",
"6 c #D18D33",
"7 c #E28020",
"8 c #E18F24",
"9 c #E79D2F",
"0 c #FB9B20",
"q c #F99D21",
"w c #FB9E20",
"e c #E09335",
"r c #DDAC36",
"t c #D9BE3C",
"y c #FCA224",
"u c #FCAA24",
"i c #FAAE26",
"p c #F1A528",
"a c #FBB127",
"s c #F7B52A",
"d c #FCB32B",
"f c #FCB82E",
"g c #E6AA3F",
"h c #E0BD3C",
"j c #F8B630",
"k c #DDC23C",
"l c #E2C03B",
"z c #E0CA3C",
"x c #FEC836",
"c c #F0C43B",
"v c #FECB3A",
"b c #FFCD39",
"n c #FECC3A",
"m c #FECD3B",
"M c #F5D43F",
"N c #EDE03E",
"B c #EEE03F",
"V c #F0E43E",
"C c #F0E53F",
"Z c #F8F03F",
"A c #F9F23F",
"S c #ECB943",
"D c #EEBE41",
"F c #C48C66",
"G c #C59A68",
"H c #FFD541",
"J c #EFE042",
"K c #FFE640",
"L c #FFE641",
"P c #FFFD40",
"I c #FFFE40",
"U c None",
/* pixels */
"UUUUUUUUUUUUUUUUUUUUUUUUUUUUUUUUUUUUUUUU",
"UUUUUUUUUUUUUUUUUUUUUUUUUUUUUUUUUUUUUUUU",
"UUUUUUUUUUUUUUUUUUUUUUUUUUUUUUUUUUUUUUUU",
"UUUUUUUUUUUUUUUUUUUUUUUUUUUUUUUUUUUUUUUU",
"UUUUUUUUUUUUUUUUUUUUUUUUUUUUUUUUUUUUUUUU",
"UUUUUUUUUUUUUUUUUUUUUUUUUUUUUUUUUUUUUUUU",
"UUUUUUUUUUUUUUUUUUUUUUUUUUUUUUUUUUUUUUUU",
"UUUUUUUUUUUUUUUUUUUUUUUUUUUUUUUUUUUUUUUU",
"UUUUUUUUUUUUUUUUUUUUUUUUUUUUUUUUUUUUUUUU",
"UUUUUUUUUUUUUUUUUUUUUUUUUUUUUUUUUUUUUUUU",
"UUUUUUUUUUUUUUUUUUUUUUUUUUUUUUUUUUUUUUUU",
"UUUUUUUUUUUUUUUUUUUUUUUUUUUUUUUUUUUUUUUU",
"UUUUUUUUUUUUUUUUUUUUUUUUUUUUUUUUUUUUUUUU",
"UUUUUUUUUUUUUUUUUUUUUUUUUUUUUUUUUUUUUUUU",
"UUUUUUUUUUUUUUUUUUU0<%UUUUUUUUUUUUUUUUUU",
"UUUUUUUUUUUUUUUUUU*:UU=UUUUUUUUUUUUUUUUU",
"UUUUUUUUUUUUUUUUUU&,UUUUUUUUUUUUUUUUUUUU",
"UUUUUUUUUUUUUUUUUUUy-UUUUUUUUUUUUUUUUUUU",
"UUUUUUUUUUUUUUUUUUU;d#UUUUUUUUUUUUUUUUUU",
"UUUUUUUUUUUUUUUUUU*fwXUUUUUUUUUUUUUUUUUU",
"UUUUUUUUUUUUUUUUU4am5oUUUUUUUUUUUUUUUUUU",
"UUUUUUUUUUUUUUUU1xvHnuOUUUUUUUUUUUUUUUUU",
"UUUUUUUUUUUUUUUU9SbKLD7UUUUUUUUUUUUUUUUU",
"UUUUUUUUUUUUUUU3gFlIBGeUUUUUUUUUUUUUUUUU",
"UUUUUUUUUUUUUUU2vcCPZJs.UUUUUUUUUUUUUUUU",
"UUUUUUUUUUUUUUU@jMzANV8UUUUUUUUUUUUUUUUU",
"UUUUUUUUUUUUUUUU 6htkr$UUUUUUUUUUUUUUUUU",
"UUUUUUUUUUUUUUUUU+qpi>UUUUUUUUUUUUUUUUUU",
"UUUUUUUUUUUUUUUUUUUUUUUUUUUUUUUUUUUUUUUU",
"UUUUUUUUUUUUUUUUUUUUUUUUUUUUUUUUUUUUUUUU",
"UUUUUUUUUUUUUUUUUUUUUUUUUUUUUUUUUUUUUUUU",
"UUUUUUUUUUUUUUUUUUUUUUUUUUUUUUUUUUUUUUUU",
"UUUUUUUUUUUUUUUUUUUUUUUUUUUUUUUUUUUUUUUU",
"UUUUUUUUUUUUUUUUUUUUUUUUUUUUUUUUUUUUUUUU",
"UUUUUUUUUUUUUUUUUUUUUUUUUUUUUUUUUUUUUUUU",
"UUUUUUUUUUUUUUUUUUUUUUUUUUUUUUUUUUUUUUUU",
"UUUUUUUUUUUUUUUUUUUUUUUUUUUUUUUUUUUUUUUU",
"UUUUUUUUUUUUUUUUUUUUUUUUUUUUUUUUUUUUUUUU",
"UUUUUUUUUUUUUUUUUUUUUUUUUUUUUUUUUUUUUUUU",
"UUUUUUUUUUUUUUUUUUUUUUUUUUUUUUUUUUUUUUUU"
};
