/* XPM */
static char *result[] = {
/* columns rows colors chars-per-pixel */
"40 40 81 1 ",
"  c #FA7A0F",
". c #E57318",
"X c #EF8A18",
"o c #F48313",
"O c #FA8111",
"+ c #FB8213",
"@ c #FB8814",
"# c #FA8916",
"$ c #FA8F16",
"% c #F38E1D",
"& c #FB8918",
"* c #FB8B19",
"= c #FA8F18",
"- c #F7941E",
"; c #FB9018",
": c #FB901A",
"> c #FB9A1E",
", c #FB9B1E",
"< c #FB9B1F",
"1 c #C49539",
"2 c #D39335",
"3 c #DF9730",
"4 c #EC9122",
"5 c #E79F2F",
"6 c #FD9F20",
"7 c #CDA939",
"8 c #D8A93B",
"9 c #FBA021",
"0 c #FBA223",
"q c #FCA324",
"w c #FCA525",
"e c #FCA624",
"r c #FCA725",
"t c #FCA925",
"y c #F2A729",
"u c #FCAC28",
"i c #FCAD2A",
"p c #FBB429",
"a c #FCB42B",
"s c #FCB62B",
"d c #FCB62C",
"f c #E4BB3E",
"g c #E8BC3B",
"h c #ECBC3A",
"j c #F1BB37",
"k c #F7BE37",
"l c #DCC33B",
"z c #DFC93C",
"x c #FDC736",
"c c #F8CB3F",
"v c #FCCB3E",
"b c #FECF3C",
"n c #EDDF3D",
"m c #FED03E",
"M c #FFD13E",
"N c #FFD13F",
"B c #FFD33F",
"V c #FFD43F",
"C c #FBDA3E",
"Z c #EFE13D",
"A c #FFEE3F",
"S c #F8F13F",
"D c #FAF43F",
"F c #FEF53F",
"G c #FCF73F",
"H c #C58756",
"J c #C7885F",
"K c #DEAE4A",
"L c #D8BD48",
"P c #E3AE41",
"I c #E0BC52",
"U c #DBC240",
"Y c #EBC34B",
"T c #FFD340",
"R c #FFD540",
"E c #FFDB41",
"W c #FFDC41",
"Q c #FAE140",
"! c #FFF840",
"~ c #FEFA40",
"^ c None",
/* pixels */
"^^^^^^^^^^^^^^^^^^^^^^^^^^^^^^^^^^^^^^^^",
"^^^^^^^^^^^^^^^^^^^^^^^^^^^^^^^^^^^^^^^^",
"^^^^^^^^^^^^^^^^^^^^^^^^^^^^^^^^^^^^^^^^",
"^^^^^^^^^^^^^^^^^^^^^^^^^^^^^^^^^^^^^^^^",
"^^^^^^^^^^^^^^^^^^^^^^^^^^^^^^^^^^^^^^^^",
"^^^^^^^^^^^^^^^^^^^^^^^^^^^^^^^^^^^^^^^^",
"^^^^^^^^^^^^^^^^^^^^^^^^^^^^^^^^^^^^^^^^",
"^^^^^^^^^^^^^^^^^^^^^^^^^^^^^^^^^^^^^^^^",
"^^^^^^^^^^^^^^^^^^^^^^^^^^^^^^^^^^^^^^^^",
"^^^^^^^^^^^^^^^^^^^^^^^^^^^^^^^^^^^^^^^^",
"^^^^^^^^^^^^^^^^^^^^^^^^^^^^^^^^^^^^^^^^",
"^^^^^^^^^^^^^^^^^^^^^^^^^^^^^^^^^^^^^^^^",
"^^^^^^^^^^^^^^^^^^^^^^^^^^^^^^^^^^^^^^^^",
"^^^^^^^^^^^^^^^^^^^^^i^^^^^^^^^^^^^^^^^^",
"^^^^^^^^^^^^^^^^^^^^^^w^^^^^^^^^^^^^^^^^",
"^^^^^^^^^^^^^^^^^^^^&q:^^^^^^^^^^^^^^^^^",
"^^^^^^^^^^^^^^^^^^^#0^^^^^^^^^^^^^^^^^^^",
"^^^^^^^^^^^^^^^^^^*d=^^^^^^^^^^^^^^^^^^^",
"^^^^^^^^^^^^^^^^^^9x$^^^^^^^^^^^^^^^^^^^",
"^^^^^^^^^^^^^^^^^Osbp, ^^^^^^^^^^^^^^^^^",
"^^^^^^^^^^^^^^^^^tBTNMa@^^^^^^^^^^^^^^^^",
"^^^^^^^^^^^^^^^^+kcVWERyo^^^^^^^^^^^^^^^",
"^^^^^^^^^^^^^^^^6PJh!FIHX^^^^^^^^^^^^^^^",
"^^^^^^^^^^^^^^^^rvKUGDLY>^^^^^^^^^^^^^^^",
"^^^^^^^^^^^^^^^^0mAnS~ZC-^^^^^^^^^^^^^^^",
"^^^^^^^^^^^^^^^^^5f7zl12.^^^^^^^^^^^^^^^",
"^^^^^^^^^^^^^^^^^%3gQ8j4^^^^^^^^^^^^^^^^",
"^^^^^^^^^^^^^^^^^^^<ue;^^^^^^^^^^^^^^^^^",
"^^^^^^^^^^^^^^^^^^^^^^^^^^^^^^^^^^^^^^^^",
"^^^^^^^^^^^^^^^^^^^^^^^^^^^^^^^^^^^^^^^^",
"^^^^^^^^^^^^^^^^^^^^^^^^^^^^^^^^^^^^^^^^",
"^^^^^^^^^^^^^^^^^^^^^^^^^^^^^^^^^^^^^^^^",
"^^^^^^^^^^^^^^^^^^^^^^^^^^^^^^^^^^^^^^^^",
"^^^^^^^^^^^^^^^^^^^^^^^^^^^^^^^^^^^^^^^^",
"^^^^^^^^^^^^^^^^^^^^^^^^^^^^^^^^^^^^^^^^",
"^^^^^^^^^^^^^^^^^^^^^^^^^^^^^^^^^^^^^^^^",
"^^^^^^^^^^^^^^^^^^^^^^^^^^^^^^^^^^^^^^^^",
"^^^^^^^^^^^^^^^^^^^^^^^^^^^^^^^^^^^^^^^^",
"^^^^^^^^^^^^^^^^^^^^^^^^^^^^^^^^^^^^^^^^",
"^^^^^^^^^^^^^^^^^^^^^^^^^^^^^^^^^^^^^^^^"
};
