/* XPM */
static char *result[] = {
/* columns rows colors chars-per-pixel */
"40 40 73 1 ",
"  c #E8811D",
". c #FA8112",
"X c #FA8813",
"o c #FA8B15",
"O c #FA8F17",
"+ c #F58A18",
"@ c #F38C1B",
"# c #FB8A19",
"$ c #FB8E1A",
"% c #FB9115",
"& c #F99317",
"* c #F89118",
"= c #FB911A",
"- c #FA9618",
"; c #FB921C",
": c #FB931D",
"> c #FB951E",
", c #FB971F",
"< c #FA991B",
"1 c #F8991D",
"2 c #FB9A1E",
"3 c #FC9A1E",
"4 c #FB9D1F",
"5 c #D98025",
"6 c #DE8A29",
"7 c #D09937",
"8 c #EF9B23",
"9 c #E5972A",
"0 c #FC9720",
"q c #FC9820",
"w c #DCA234",
"e c #DDBE3C",
"r c #FAAA20",
"t c #F2AE2F",
"y c #FAB52C",
"u c #FCB82D",
"i c #FCBC2F",
"p c #FEBE2F",
"a c #F3BB34",
"s c #F6B836",
"d c #FABF33",
"f c #DCC23C",
"g c #E0C43D",
"h c #EBCA3A",
"j c #ECCF3D",
"k c #F9C136",
"l c #FAC037",
"z c #FDC435",
"x c #FDC635",
"c c #FDC636",
"v c #FFCF37",
"b c #FECD3B",
"n c #E5D33D",
"m c #EDD43D",
"M c #F3DC39",
"N c #EEE13E",
"B c #FFFE3F",
"V c #C98F53",
"C c #D29250",
"Z c #DABD49",
"A c #E3AE42",
"S c #C89767",
"D c #FFD440",
"F c #FFD541",
"G c #FFD742",
"H c #FDDC41",
"J c #F5E142",
"K c #F1E640",
"L c #FFE940",
"P c #F8F240",
"I c #FBF640",
"U c #FFFC40",
"Y c None",
/* pixels */
"YYYYYYYYYYYYYYYYYYYYYYYYYYYYYYYYYYYYYYYY",
"YYYYYYYYYYYYYYYYYYYYYYYYYYYYYYYYYYYYYYYY",
"YYYYYYYYYYYYYYYYYYYYYYYYYYYYYYYYYYYYYYYY",
"YYYYYYYYYYYYYYYYYYYYYYYYYYYYYYYYYYYYYYYY",
"YYYYYYYYYYYYYYYYYYYYYYYYYYYYYYYYYYYYYYYY",
"YYYYYYYYYYYYYYYYYYYYYYYYYYYYYYYYYYYYYYYY",
"YYYYYYYYYYYYYYYYYYYYYYYYYYYYYYYYYYYYYYYY",
"YYYYYYYYYYYYYYYYYYYYYYYYYYYYYYYYYYYYYYYY",
"YYYYYYYYYYYYYYYYYYYYYYYYYYYYYYYYYYYYYYYY",
"YYYYYYYYYYYYYYYYYYYYYYYYYYYYYYYYYYYYYYYY",
"YYYYYYYYYYYYYYYYYYYYYYYYYYYYYYYYYYYYYYYY",
"YYYYYYYYYYYYYYYYYYYYYYYYYYYYYYYYYYYYYYYY",
"YYYYYYYYYYYYYYYYYYYYYYYYYYYYYYYYYYYYYYYY",
"YYYYYYYYYYYYYYYYYYYYYYY,YYYYYYYYYYYYYYYY",
"YYYYYYYYYYYYYYYYYYYYYYYqYYYYYYYYYYYYYYYY",
"YYYYYYYYYYYYYYYYYYY$0:;YYYYYYYYYYYYYYYYY",
"YYYYYYYYYYYYYYYYYYY>Y#YYYYYYYYYYYYYYYYYY",
"YYYYYYYYYYYYYYYYYY2=YYYYYYYYYYYYYYYYYYYY",
"YYYYYYYYYYYYYYYYYY4uOYYYYYYYYYYYYYYYYYYY",
"YYYYYYYYYYYYYYYYYY.zc<YYYYYYYYYYYYYYYYYY",
"YYYYYYYYYYYYYYYYYY&xGx-YYYYYYYYYYYYYYYYY",
"YYYYYYYYYYYYYYYYY%rbFDpoYYYYYYYYYYYYYYYY",
"YYYYYYYYYYYYYYYYY6svLHA8YYYYYYYYYYYYYYYY",
"YYYYYYYYYYYYYYYY*CVMBZStYYYYYYYYYYYYYYYY",
"YYYYYYYYYYYYYYYY3lhPUKJdXYYYYYYYYYYYYYYY",
"YYYYYYYYYYYYYYYY+kjnINm9YYYYYYYYYYYYYYYY",
"YYYYYYYYYYYYYYYYY57gfew@YYYYYYYYYYYYYYYY",
"YYYYYYYYYYYYYYYYYY yai1YYYYYYYYYYYYYYYYY",
"YYYYYYYYYYYYYYYYYYYYYYYYYYYYYYYYYYYYYYYY",
"YYYYYYYYYYYYYYYYYYYYYYYYYYYYYYYYYYYYYYYY",
"YYYYYYYYYYYYYYYYYYYYYYYYYYYYYYYYYYYYYYYY",
"YYYYYYYYYYYYYYYYYYYYYYYYYYYYYYYYYYYYYYYY",
"YYYYYYYYYYYYYYYYYYYYYYYYYYYYYYYYYYYYYYYY",
"YYYYYYYYYYYYYYYYYYYYYYYYYYYYYYYYYYYYYYYY",
"YYYYYYYYYYYYYYYYYYYYYYYYYYYYYYYYYYYYYYYY",
"YYYYYYYYYYYYYYYYYYYYYYYYYYYYYYYYYYYYYYYY",
"YYYYYYYYYYYYYYYYYYYYYYYYYYYYYYYYYYYYYYYY",
"YYYYYYYYYYYYYYYYYYYYYYYYYYYYYYYYYYYYYYYY",
"YYYYYYYYYYYYYYYYYYYYYYYYYYYYYYYYYYYYYYYY",
"YYYYYYYYYYYYYYYYYYYYYYYYYYYYYYYYYYYYYYYY"
};
