/* XPM */
static char *result[] = {
/* columns rows colors chars-per-pixel */
"40 40 72 1 ",
"  c #FA7A0F",
". c #E46815",
"X c #EE7612",
"o c #E67A1B",
"O c #D5742D",
"+ c #FA8212",
"@ c #FA8312",
"# c #FA8514",
"$ c #FA8916",
"% c #FC8916",
"& c #FA8F16",
"* c #FC8C17",
"= c #F3891C",
"- c #FB8B18",
"; c #FB8D1B",
": c #FB9A1B",
"> c #FB991E",
", c #FB991F",
"< c #FAA11E",
"1 c #D18D32",
"2 c #CF9F3A",
"3 c #E28E28",
"4 c #FB9E21",
"5 c #CDAB39",
"6 c #D1A43B",
"7 c #D9BE3B",
"8 c #DAB93C",
"9 c #EFA22F",
"0 c #ECA52D",
"q c #F8A427",
"w c #FCA526",
"e c #FBA825",
"r c #FCAA26",
"t c #FBAB28",
"y c #FCAD29",
"u c #FBB327",
"i c #FBB22B",
"p c #FCB529",
"a c #FCB92D",
"s c #E4A031",
"d c #FAB830",
"f c #FCBC31",
"g c #FDBD32",
"h c #E0C33A",
"j c #EACD3D",
"k c #FEC332",
"l c #FDC234",
"z c #FCCC36",
"x c #FECE3C",
"c c #EDD13F",
"v c #EADA3D",
"b c #ECDE3D",
"n c #FED23E",
"m c #FFD23E",
"M c #F6EF3F",
"N c #FBE83C",
"B c #FAE93F",
"V c #FAF53F",
"C c #C99F56",
"Z c #C99559",
"A c #DCA140",
"S c #DEA34C",
"D c #D8A857",
"F c #EEB741",
"G c #FFD641",
"H c #FFD741",
"J c #FFD742",
"K c #FEE740",
"L c #FFF340",
"P c #FFFD40",
"I c #FFFE40",
"U c None",
/* pixels */
"UUUUUUUUUUUUUUUUUUUUUUUUUUUUUUUUUUUUUUUU",
"UUUUUUUUUUUUUUUUUUUUUUUUUUUUUUUUUUUUUUUU",
"UUUUUUUUUUUUUUUUUUUUUUUUUUUUUUUUUUUUUUUU",
"UUUUUUUUUUUUUUUUUUUUUUUUUUUUUUUUUUUUUUUU",
"UUUUUUUUUUUUUUUUUUUUUUUUUUUUUUUUUUUUUUUU",
"UUUUUUUUUUUUUUUUUUUUUUUUUUUUUUUUUUUUUUUU",
"UUUUUUUUUUUUUUUUUUUUUUUUUUUUUUUUUUUUUUUU",
"UUUUUUUUUUUUUUUUUUUUUUUUUUUUUUUUUUUUUUUU",
"UUUUUUUUUUUUUUUUUUUUUUUUUUUUUUUUUUUUUUUU",
"UUUUUUUUUUUUUUUUUUUUUUUUUUUUUUUUUUUUUUUU",
"UUUUUUUUUUUUUUUUUUUUUUUUUUUUUUUUUUUUUUUU",
"UUUUUUUUUUUUUUUUUUUUUUUUUUUUUUUUUUUUUUUU",
"UUUUUUUUUUUUUUUUUUUUUUUUUUUUUUUUUUUUUUUU",
"UUUUUUUUUUUUUUUUUUUUUUUUUUUUUUUUUUUUUUUU",
"UUUUUUUUUUUUUUUUUUUU,#UUUUUUUUUUUUUUUUUU",
"UUUUUUUUUUUUUUUUUUUUUeUUUUUUUUUUUUUUUUUU",
"UUUUUUUUUUUUUUUUUUUU;wUUUUUUUUUUUUUUUUUU",
"UUUUUUUUUUUUUUUUUUU>yUUUUUUUUUUUUUUUUUUU",
"UUUUUUUUUUUUUUUUUU4a+UUUUUUUUUUUUUUUUUUU",
"UUUUUUUUUUUUUUUUU$lu<@UUUUUUUUUUUUUUUUUU",
"UUUUUUUUUUUUUUUUUrmxng-UUUUUUUUUUUUUUUUU",
"UUUUUUUUUUUUUUUU fHGHJdXUUUUUUUUUUUUUUUU",
"UUUUUUUUUUUUUUUU*ASzLKDOUUUUUUUUUUUUUUUU",
"UUUUUUUUUUUUUUUU:FZhIvC9UUUUUUUUUUUUUUUU",
"UUUUUUUUUUUUUUUU&kNMPVBpUUUUUUUUUUUUUUUU",
"UUUUUUUUUUUUUUUUU0c5b763UUUUUUUUUUUUUUUU",
"UUUUUUUUUUUUUUUUUo1j82s.UUUUUUUUUUUUUUUU",
"UUUUUUUUUUUUUUUUUU=tiq%UUUUUUUUUUUUUUUUU",
"UUUUUUUUUUUUUUUUUUUUUUUUUUUUUUUUUUUUUUUU",
"UUUUUUUUUUUUUUUUUUUUUUUUUUUUUUUUUUUUUUUU",
"UUUUUUUUUUUUUUUUUUUUUUUUUUUUUUUUUUUUUUUU",
"UUUUUUUUUUUUUUUUUUUUUUUUUUUUUUUUUUUUUUUU",
"UUUUUUUUUUUUUUUUUUUUUUUUUUUUUUUUUUUUUUUU",
"UUUUUUUUUUUUUUUUUUUUUUUUUUUUUUUUUUUUUUUU",
"UUUUUUUUUUUUUUUUUUUUUUUUUUUUUUUUUUUUUUUU",
"UUUUUUUUUUUUUUUUUUUUUUUUUUUUUUUUUUUUUUUU",
"UUUUUUUUUUUUUUUUUUUUUUUUUUUUUUUUUUUUUUUU",
"UUUUUUUUUUUUUUUUUUUUUUUUUUUUUUUUUUUUUUUU",
"UUUUUUUUUUUUUUUUUUUUUUUUUUUUUUUUUUUUUUUU",
"UUUUUUUUUUUUUUUUUUUUUUUUUUUUUUUUUUUUUUUU"
};
