/* XPM */
static char *result[] = {
/* columns rows colors chars-per-pixel */
"40 40 67 1 ",
"  c #B77A34",
". c #D35917",
"X c #F2680C",
"o c #FA700C",
"O c #FA760D",
"+ c #FA7C0F",
"@ c #FB7D11",
"# c #CA6029",
"$ c #D27233",
"% c #E8821B",
"& c #FA8412",
"* c #FA8613",
"= c #FA8713",
"- c #FA8714",
"; c #FA8B17",
": c #FA8D18",
"> c #FA941B",
", c #FB961A",
"< c #F9981B",
"1 c #F99B1C",
"2 c #DC8E2D",
"3 c #C08837",
"4 c #F09420",
"5 c #F59B23",
"6 c #FB9C20",
"7 c #FB9E20",
"8 c #DCA034",
"9 c #D3AB3A",
"0 c #D2B33A",
"q c #F7A627",
"w c #FBA021",
"e c #FBA421",
"r c #FBA623",
"t c #FCA927",
"y c #F7B32E",
"u c #FBB42C",
"i c #FCB72D",
"p c #EEB93F",
"a c #F1B132",
"s c #FDBD30",
"d c #F2BC3A",
"f c #DEC73C",
"g c #DFC83C",
"h c #E3C83D",
"j c #FDC032",
"k c #FDC233",
"l c #FDC536",
"z c #FFCA38",
"x c #FED03D",
"c c #FED33F",
"v c #FFD33F",
"b c #F2DB3C",
"n c #F2E73D",
"m c #FFED3C",
"M c #FFEE3E",
"N c #F7F03E",
"B c #FBF53F",
"V c #D0984D",
"C c #C9A44F",
"Z c #D5AE41",
"A c #DEAE50",
"S c #FFD742",
"D c #F4DF40",
"F c #FFEB41",
"G c #FFFB40",
"H c #FEFC40",
"J c None",
/* pixels */
"JJJJJJJJJJJJJJJJJJJJJJJJJJJJJJJJJJJJJJJJ",
"JJJJJJJJJJJJJJJJJJJJJJJJJJJJJJJJJJJJJJJJ",
"JJJJJJJJJJJJJJJJJJJJJJJJJJJJJJJJJJJJJJJJ",
"JJJJJJJJJJJJJJJJJJJJJJJJJJJJJJJJJJJJJJJJ",
"JJJJJJJJJJJJJJJJJJJJJJJJJJJJJJJJJJJJJJJJ",
"JJJJJJJJJJJJJJJJJJJJJJJJJJJJJJJJJJJJJJJJ",
"JJJJJJJJJJJJJJJJJJJJJJJJJJJJJJJJJJJJJJJJ",
"JJJJJJJJJJJJJJJJJJJJJJJJJJJJJJJJJJJJJJJJ",
"JJJJJJJJJJJJJJJJJJJJJJJJJJJJJJJJJJJJJJJJ",
"JJJJJJJJJJJJJJJJJJJJJJJJJJJJJJJJJJJJJJJJ",
"JJJJJJJJJJJJJJJJJJJJJJJJJJJJJJJJJJJJJJJJ",
"JJJJJJJJJJJJJJJJJJJJJJJJJJJJJJJJJJJJJJJJ",
"JJJJJJJJJJJJJJJJJJJJJJJJJJJJJJJJJJJJJJJJ",
"JJJJJJJJJJJJJJJJJJJJJJJJJJJJJJJJJJJJJJJJ",
"JJJJJJJJJJJJJJJJJJJJJJJJJJJJJJJJJJJJJJJJ",
"JJJJJJJJJJJJJJJJJJJJJJJJJJJJJJJJJJJJJJJJ",
"JJJJJJJJJJJJJJJJJ7Jt-JJJJJJJJJJJJJJJJJJJ",
"JJJJJJJJJJJJJJJJJJJJ6;JJJJJJJJJJJJJJJJJJ",
"JJJJJJJJJJJJJJJJJJJrk>JJJJJJJJJJJJJJJJJJ",
"JJJJJJJJJJJJJJJJJJexiOJJJJJJJJJJJJJJJJJJ",
"JJJJJJJJJJJJJJJJJ=jSs*oJJJJJJJJJJJJJJJJJ",
"JJJJJJJJJJJJJJJJJwcvvk,XJJJJJJJJJJJJJJJJ",
"JJJJJJJJJJJJJJJJ+yVpMFd#JJJJJJJJJJJJJJJJ",
"JJJJJJJJJJJJJJJJ:lACnGZ$JJJJJJJJJJJJJJJJ",
"JJJJJJJJJJJJJJJJ:zmNBHb<JJJJJJJJJJJJJJJJ",
"JJJJJJJJJJJJJJJJ&aDf0g %JJJJJJJJJJJJJJJJ",
"JJJJJJJJJJJJJJJJJ489h32.JJJJJJJJJJJJJJJJ",
"JJJJJJJJJJJJJJJJJJ1qu5@JJJJJJJJJJJJJJJJJ",
"JJJJJJJJJJJJJJJJJJJJJJJJJJJJJJJJJJJJJJJJ",
"JJJJJJJJJJJJJJJJJJJJJJJJJJJJJJJJJJJJJJJJ",
"JJJJJJJJJJJJJJJJJJJJJJJJJJJJJJJJJJJJJJJJ",
"JJJJJJJJJJJJJJJJJJJJJJJJJJJJJJJJJJJJJJJJ",
"JJJJJJJJJJJJJJJJJJJJJJJJJJJJJJJJJJJJJJJJ",
"JJJJJJJJJJJJJJJJJJJJJJJJJJJJJJJJJJJJJJJJ",
"JJJJJJJJJJJJJJJJJJJJJJJJJJJJJJJJJJJJJJJJ",
"JJJJJJJJJJJJJJJJJJJJJJJJJJJJJJJJJJJJJJJJ",
"JJJJJJJJJJJJJJJJJJJJJJJJJJJJJJJJJJJJJJJJ",
"JJJJJJJJJJJJJJJJJJJJJJJJJJJJJJJJJJJJJJJJ",
"JJJJJJJJJJJJJJJJJJJJJJJJJJJJJJJJJJJJJJJJ",
"JJJJJJJJJJJJJJJJJJJJJJJJJJJJJJJJJJJJJJJJ"
};
