/* XPM */
static char *result[] = {
/* columns rows colors chars-per-pixel */
"40 40 62 1 ",
"  c #B67A35",
". c #C75119",
"X c #FA780E",
"o c #E2791C",
"O c #C75A26",
"+ c #BE8637",
"@ c #EF8F1E",
"# c #FA8012",
"$ c #F98915",
"% c #FA8E16",
"& c #FA9017",
"* c #FB9117",
"= c #FA9318",
"- c #FA911A",
"; c #FB921D",
": c #DB802F",
"> c #DC8D2B",
", c #DB9F33",
"< c #F59E24",
"1 c #FC9821",
"2 c #FC9B22",
"3 c #FC9A23",
"4 c #FC9C22",
"5 c #E79E31",
"6 c #D2AA3A",
"7 c #D1B23A",
"8 c #F7A224",
"9 c #FAA321",
"0 c #FBA022",
"q c #FBA624",
"w c #FCA927",
"e c #FCAE28",
"r c #FCB02B",
"t c #FCB52B",
"y c #FBB72C",
"u c #E8AE3A",
"i c #EFB233",
"p c #F5B736",
"a c #DDC53B",
"s c #E5CB3E",
"d c #E1CC3C",
"f c #FEC735",
"g c #F8C738",
"h c #FECB38",
"j c #FECE3B",
"k c #FECF3C",
"l c #FFD23F",
"z c #F2DE3D",
"x c #FEED3B",
"c c #FFEF3F",
"v c #F7F03F",
"b c #F9F33E",
"n c #FCF73F",
"m c #CF9C5B",
"M c #D49F53",
"N c #CAA146",
"B c #D2B242",
"V c #F5E140",
"C c #FFEB40",
"Z c #FCF740",
"A c #FEFB40",
"S c None",
/* pixels */
"SSSSSSSSSSSSSSSSSSSSSSSSSSSSSSSSSSSSSSSS",
"SSSSSSSSSSSSSSSSSSSSSSSSSSSSSSSSSSSSSSSS",
"SSSSSSSSSSSSSSSSSSSSSSSSSSSSSSSSSSSSSSSS",
"SSSSSSSSSSSSSSSSSSSSSSSSSSSSSSSSSSSSSSSS",
"SSSSSSSSSSSSSSSSSSSSSSSSSSSSSSSSSSSSSSSS",
"SSSSSSSSSSSSSSSSSSSSSSSSSSSSSSSSSSSSSSSS",
"SSSSSSSSSSSSSSSSSSSSSSSSSSSSSSSSSSSSSSSS",
"SSSSSSSSSSSSSSSSSSSSSSSSSSSSSSSSSSSSSSSS",
"SSSSSSSSSSSSSSSSSSSSSSSSSSSSSSSSSSSSSSSS",
"SSSSSSSSSSSSSSSSSSSSSSSSSSSSSSSSSSSSSSSS",
"SSSSSSSSSSSSSSSSSSSSSSSSSSSSSSSSSSSSSSSS",
"SSSSSSSSSSSSSSSSSSSSSSSSSSSSSSSSSSSSSSSS",
"SSSSSSSSSSSSSSSSSSSSSSSSSSSSSSSSSSSSSSSS",
"SSSSSSSSSSSSSSSSSSSSSSSSSSSSSSSSSSSSSSSS",
"SSSSSSSSSSSSSSSSSSSSSSSSSSSSSSSSSSSSSSSS",
"SSSSSSSSSSSSSSSSSSSSSSSSSSSSSSSSSSSSSSSS",
"SSSSSSSSSSSSSSSSS2SSSSSSSSSSSSSSSSSSSSSS",
"SSSSSSSSSSSSSSSSS314SSSSSSSSSSSSSSSSSSSS",
"SSSSSSSSSSSSSSSSSSS;0SSSSSSSSSSSSSSSSSSS",
"SSSSSSSSSSSSSSSSSSSwrSSSSSSSSSSSSSSSSSSS",
"SSSSSSSSSSSSSSSSSSekqXSSSSSSSSSSSSSSSSSS",
"SSSSSSSSSSSSSSSSS-jlht&SSSSSSSSSSSSSSSSS",
"SSSSSSSSSSSSSSSSS5MgcCuOSSSSSSSSSSSSSSSS",
"SSSSSSSSSSSSSSSS*pmBnbN:SSSSSSSSSSSSSSSS",
"SSSSSSSSSSSSSSSS=fxvZAz9SSSSSSSSSSSSSSSS",
"SSSSSSSSSSSSSSSS%iVa7d oSSSSSSSSSSSSSSSS",
"SSSSSSSSSSSSSSSSS@,6s+>.SSSSSSSSSSSSSSSS",
"SSSSSSSSSSSSSSSSSS$8y<#SSSSSSSSSSSSSSSSS",
"SSSSSSSSSSSSSSSSSSSSSSSSSSSSSSSSSSSSSSSS",
"SSSSSSSSSSSSSSSSSSSSSSSSSSSSSSSSSSSSSSSS",
"SSSSSSSSSSSSSSSSSSSSSSSSSSSSSSSSSSSSSSSS",
"SSSSSSSSSSSSSSSSSSSSSSSSSSSSSSSSSSSSSSSS",
"SSSSSSSSSSSSSSSSSSSSSSSSSSSSSSSSSSSSSSSS",
"SSSSSSSSSSSSSSSSSSSSSSSSSSSSSSSSSSSSSSSS",
"SSSSSSSSSSSSSSSSSSSSSSSSSSSSSSSSSSSSSSSS",
"SSSSSSSSSSSSSSSSSSSSSSSSSSSSSSSSSSSSSSSS",
"SSSSSSSSSSSSSSSSSSSSSSSSSSSSSSSSSSSSSSSS",
"SSSSSSSSSSSSSSSSSSSSSSSSSSSSSSSSSSSSSSSS",
"SSSSSSSSSSSSSSSSSSSSSSSSSSSSSSSSSSSSSSSS",
"SSSSSSSSSSSSSSSSSSSSSSSSSSSSSSSSSSSSSSSS"
};
