/* XPM */
static char *result[] = {
/* columns rows colors chars-per-pixel */
"40 40 122 2 ",
"   c #764009",
".  c #78440C",
"X  c #7A4511",
"o  c #7C4814",
"O  c #7D4C1B",
"+  c #874F0B",
"@  c #8C5E00",
"#  c #8E540A",
"$  c #88590E",
"%  c #925300",
"&  c #9F5E00",
"*  c #975D0F",
"=  c #8F610E",
"-  c #916200",
";  c #9F7600",
":  c #926710",
">  c #9B6319",
",  c #976C1A",
"<  c #AA6B04",
"1  c #93673F",
"2  c #966C43",
"3  c #9A6E48",
"4  c #9A714B",
"5  c #9A7457",
"6  c #A17E61",
"7  c #A98604",
"8  c #B7802B",
"9  c #B69931",
"0  c #D28901",
"q  c #DB8D00",
"w  c #D29200",
"e  c #DC9402",
"r  c #D19D00",
"t  c #DE9902",
"y  c #C68314",
"u  c #C98712",
"i  c #DE9612",
"p  c #DD961F",
"a  c #E49A01",
"s  c #E89D04",
"d  c #E09D19",
"f  c #CCA702",
"g  c #C9AD02",
"h  c #C5A913",
"j  c #C9B012",
"k  c #EEA204",
"l  c #ECAD01",
"z  c #F9AC03",
"x  c #EBB301",
"c  c #EDBC02",
"v  c #F1B700",
"b  c #FDB302",
"n  c #F3BB00",
"m  c #FFBD01",
"M  c #E8A012",
"N  c #FBBB2D",
"B  c #E9B635",
"V  c #EDBC34",
"C  c #FCBE38",
"Z  c #D5C002",
"A  c #DAC402",
"S  c #F3C101",
"D  c #FDC401",
"F  c #F7CD02",
"G  c #FDCD01",
"H  c #FCCD0B",
"J  c #E5D305",
"K  c #EBD401",
"L  c #ECDB05",
"P  c #F1D203",
"I  c #FCD400",
"U  c #FDDB00",
"Y  c #FDDD0A",
"T  c #FDE201",
"R  c #F6E903",
"E  c #FDED02",
"W  c #FAE308",
"Q  c #FCEA0D",
"!  c #FFF102",
"~  c #FDE023",
"^  c #FDE134",
"/  c #A78669",
"(  c #A8876B",
")  c #BA966B",
"_  c #BA9F6C",
"`  c #AF9078",
"'  c #B4977F",
"]  c #BC9B78",
"[  c #BCA178",
"{  c #FDD05E",
"}  c #FEE645",
"|  c #FCE452",
" . c #FDE75F",
".. c #FDE95B",
"X. c #FDD36C",
"o. c #FEE96A",
"O. c #B89C85",
"+. c #BAA08B",
"@. c #CDB6A1",
"#. c #D1BEAA",
"$. c #EBC58D",
"%. c #EECE9E",
"&. c #FEF19B",
"*. c #D6C5B4",
"=. c #F4DFBD",
"-. c #FDE2A1",
";. c #FAF1B5",
":. c #DBCDC4",
">. c #DFD3CA",
",. c #E1D5CD",
"<. c #E4DAD3",
"1. c #FFF6C5",
"2. c #E9E2DB",
"3. c #FDF3DF",
"4. c #FEFADF",
"5. c #F2EDEA",
"6. c #FEFAE3",
"7. c #F4F0ED",
"8. c #F7F3F1",
"9. c #FCF7F5",
"0. c #FDF9F6",
"q. c #FFFFFF",
/* pixels */
"q.q.q.q.q.q.q.q.q.q.q.q.q.q.q.q.q.q.q.q.q.q.q.q.q.q.q.q.q.q.q.q.q.q.q.q.q.q.q.q.",
"q.q.q.q.q.q.q.q.q.q.q.q.q.q.q.q.q.q.q.q.q.q.q.q.q.q.q.q.q.q.q.q.q.q.q.q.q.q.q.q.",
"q.q.q.q.q.q.q.q.q.q.q.q.q.q.q.q.q.q.q.q.q.q.q.q.q.q.q.q.q.q.q.q.q.q.q.q.q.q.q.q.",
"q.q.q.q.q.q.q.q.q.q.q.q.q.q.q.q.q.q.q.q.q.q.q.q.q.q.q.q.q.q.q.q.q.q.q.q.q.q.q.q.",
"q.q.q.q.q.q.q.q.q.q.q.q.q.q.q.q.q.q.q.q.q.q.q.q.q.q.q.q.q.q.q.q.q.q.q.q.q.q.q.q.",
"q.q.q.q.q.q.q.q.q.q.q.q.q.q.q.q.q.q.q.q.q.q.q.q.q.q.q.q.q.q.q.q.q.q.q.q.q.q.q.q.",
"q.q.q.q.q.q.q.q.q.q.q.q.q.q.q.q.q.q.q.q.q.q.q.q.q.q.q.q.q.q.q.q.q.q.q.q.q.q.q.q.",
"q.q.q.q.q.q.q.q.q.q.q.q.q.q.q.q.q.q.q.q.q.q.q.q.q.q.q.q.q.q.q.q.q.q.q.q.q.q.q.q.",
"q.q.q.q.q.q.q.q.q.q.q.q.q.q.q.q.q.q.q.q.q.q.q.q.q.q.q.q.q.q.q.q.q.q.q.q.q.q.q.q.",
"q.q.q.q.q.q.q.q.q.q.q.q.q.q.q.q.q.q.q.q.q.q.q.q.q.q.q.q.q.q.q.q.q.q.q.q.q.q.q.q.",
"q.q.q.q.q.q.q.q.q.q.q.q.q.q.q.q.q.q.q.q.q.q.q.q.q.q.q.q.q.q.q.q.q.q.q.q.q.q.q.q.",
"q.q.q.q.q.q.q.q.q.q.q.q.q.q.q.q.7.2.2.2.2.2.2.7.q.q.q.q.q.q.q.q.q.q.q.q.q.q.q.q.",
"q.q.q.q.q.q.q.q.q.q.q.q.q.q.q.q.+.O O O O O O +.q.q.q.q.q.q.q.q.q.q.q.q.q.q.q.q.",
"q.q.q.q.q.q.q.q.q.q.q.q.q.:.6 6 9 g g g g g g 9 6 6 :.q.q.q.q.q.q.q.q.q.q.q.q.q.",
"q.q.q.q.q.q.q.q.q.q.q.q.<.[ - - g ! E E E E ! f % % ] <.q.q.q.q.q.q.q.q.q.q.q.q.",
"q.q.q.q.q.q.q.q.q.q.q.7.4 7 R R W Y Y U U U U D z z < 4 7.q.q.q.q.q.q.q.q.q.q.q.",
"q.q.q.q.q.q.q.q.q.q.<.4 h K T T o.1.1.} U U U I I I l y 2 ,.q.q.q.q.q.q.q.q.q.q.",
"q.q.q.q.q.q.q.q.q.q.,.. g E Y  .1.0.%.V n G I U U U D 0   :.q.q.q.q.q.q.q.q.q.q.",
"q.q.q.q.q.q.q.q.q.8.*.$ A ! ^ 4.0.=.i q a b G Y U U D e # #.8.q.q.q.q.q.q.q.q.q.",
"q.q.q.q.q.q.q.q.q.' , J W ..6.q.$.p F I G I m D U U I D s > ' q.q.q.q.q.q.q.q.q.",
"q.q.q.q.q.q.q.q.q./ @ R T o.0.$.B c U U U U G D D U U I z % / q.q.q.q.q.q.q.q.q.",
"q.q.q.q.q.q.q.q.q./ @ R T | ;.p x T U U U U U D b I U G z % / q.q.q.q.q.q.q.q.q.",
"q.q.q.q.q.q.q.q.q.( @ R T W Q t x U U U U I U D b U U G z % ( q.q.q.q.q.q.q.q.q.",
"q.q.q.q.q.q.q.q.q./ @ R T T R t x U U U U Y &.X.b I U G z % / q.q.q.q.q.q.q.q.q.",
"q.q.q.q.q.q.q.q.q./ @ R T T T x x S U U ~ o.-.{ D U U I z % / q.q.q.q.q.q.q.q.q.",
"q.q.q.q.q.q.q.q.q.` : L U U U E c a F I { 3.C D U U U D k * ` q.q.q.q.q.q.q.q.q.",
"q.q.q.q.q.q.q.q.q.5.#.= A E U U U K t e M N H U U U D e # @.5.q.q.q.q.q.q.q.q.q.",
"q.q.q.q.q.q.q.q.q.q.>.  Z E U U T Y x x v G I U U U D q   :.q.q.q.q.q.q.q.q.q.q.",
"q.q.q.q.q.q.q.q.q.q.<.2 j K U T U U U U U U U Y I I l u 1 >.q.q.q.q.q.q.q.q.q.q.",
"q.q.q.q.q.q.q.q.q.q.0.7.4 7 ! E R U U U U U U D z b < 3 5.q.q.q.q.q.q.q.q.q.q.q.",
"q.q.q.q.q.q.q.q.q.q.q.q.>._ ; ; r m m m m m D s & & ) :.q.q.q.q.q.q.q.q.q.q.q.q.",
"q.q.q.q.q.q.q.q.q.q.q.q.q.:.6 6 , 0 0 0 0 0 0 , 5 5 :.q.q.q.q.q.q.q.q.q.q.q.q.q.",
"q.q.q.q.q.q.q.q.q.q.q.q.q.q.q.q.O.. o X o o X O.q.q.q.q.q.q.q.q.q.q.q.q.q.q.q.q.",
"q.q.q.q.q.q.q.q.q.q.q.q.q.q.q.q.5.<.<.<.<.<.,.5.q.q.q.q.q.q.q.q.q.q.q.q.q.q.q.q.",
"q.q.q.q.q.q.q.q.q.q.q.q.q.q.q.q.q.q.q.q.q.q.q.q.q.q.q.q.q.q.q.q.q.q.q.q.q.q.q.q.",
"q.q.q.q.q.q.q.q.q.q.q.q.q.q.q.q.q.q.q.q.q.q.q.q.q.q.q.q.q.q.q.q.q.q.q.q.q.q.q.q.",
"q.q.q.q.q.q.q.q.q.q.q.q.q.q.q.q.q.q.q.q.q.q.q.q.q.q.q.q.q.q.q.q.q.q.q.q.q.q.q.q.",
"q.q.q.q.q.q.q.q.q.q.q.q.q.q.q.q.q.q.q.q.q.q.q.q.q.q.q.q.q.q.q.q.q.q.q.q.q.q.q.q.",
"q.q.q.q.q.q.q.q.q.q.q.q.q.q.q.q.q.q.q.q.q.q.q.q.q.q.q.q.q.q.q.q.q.q.q.q.q.q.q.q.",
"q.q.q.q.q.q.q.q.q.q.q.q.q.q.q.q.q.q.q.q.q.q.q.q.q.q.q.q.q.q.q.q.q.q.q.q.q.q.q.q."
};
