/* XPM */
static char *xpm_[] = {
/* columns rows colors chars-per-pixel */
"40 40 237 2 ",
"   c #040300",
".  c #0B0200",
"X  c #010B00",
"o  c #0C0B00",
"O  c #00050C",
"+  c #120301",
"@  c #1A0400",
"#  c #120A00",
"$  c #1C0800",
"%  c #011200",
"&  c #011C01",
"*  c #0D1A00",
"=  c #161400",
"-  c #1C1E00",
";  c #181900",
":  c #000214",
">  c #01001B",
",  c #001C13",
"<  c #270B00",
"1  c #231600",
"2  c #2B1B00",
"3  c #261800",
"4  c #012200",
"5  c #0A2201",
"6  c #002C01",
"7  c #0B2904",
"8  c #032B0B",
"9  c #06270C",
"0  c #1B2700",
"q  c #033B03",
"w  c #033604",
"e  c #173B04",
"r  c #0C2C13",
"t  c #042712",
"y  c #0F3F15",
"u  c #252300",
"i  c #253C03",
"p  c #323F09",
"a  c #000223",
"s  c #000029",
"d  c #003728",
"f  c #024300",
"g  c #0E4F00",
"h  c #174605",
"j  c #175805",
"k  c #104018",
"l  c #0A5300",
"z  c #395D1A",
"x  c #334F0A",
"c  c #1E7800",
"v  c #156500",
"b  c #276F08",
"n  c #277808",
"m  c #2D6413",
"M  c #3F6019",
"N  c #297917",
"B  c #337B1D",
"V  c #377818",
"C  c #34740B",
"Z  c #134426",
"A  c #3C582F",
"S  c #2A6723",
"D  c #366C26",
"F  c #2D7221",
"G  c #357825",
"H  c #3F6033",
"J  c #4F4B00",
"K  c #5C4400",
"L  c #5E4F00",
"P  c #4C5014",
"I  c #775D02",
"U  c #5E6112",
"Y  c #476F1A",
"T  c #7A6903",
"R  c #786503",
"E  c #7D7101",
"W  c #746D12",
"Q  c #5D4627",
"!  c #575626",
"~  c #4C5731",
"^  c #645233",
"/  c #665027",
"(  c #466A26",
")  c #447526",
"_  c #447932",
"`  c #7A7923",
"'  c #836605",
"]  c #8A6F1B",
"[  c #876C1B",
"{  c #86750B",
"}  c #A27911",
"|  c #1D9C02",
" . c #1E9304",
".. c #248E03",
"X. c #2B8A09",
"o. c #368A07",
"O. c #259400",
"+. c #2B9503",
"@. c #259B01",
"#. c #2C9B02",
"$. c #26970C",
"%. c #2D950A",
"&. c #2D9D0B",
"*. c #25990A",
"=. c #339402",
"-. c #329B02",
";. c #33950B",
":. c #339C0B",
">. c #3B9909",
",. c #2B8D13",
"<. c #268E15",
"1. c #388A18",
"2. c #2B9412",
"3. c #2B9B13",
"4. c #2C9B19",
"5. c #249813",
"6. c #349414",
"7. c #349B12",
"8. c #3B9C13",
"9. c #34921B",
"0. c #3C9B1B",
"q. c #399819",
"w. c #1EA608",
"e. c #25A202",
"r. c #2CA202",
"t. c #2AA50A",
"y. c #33A304",
"u. c #3BA003",
"i. c #34A20B",
"p. c #2EA210",
"a. c #33A111",
"s. c #38A115",
"d. c #3C8127",
"f. c #3B8C23",
"g. c #378D26",
"h. c #3F9223",
"j. c #3D9E22",
"k. c #3A942A",
"l. c #2E9830",
"z. c #3CA320",
"x. c #459A07",
"c. c #49821A",
"v. c #438916",
"b. c #43941C",
"n. c #43890F",
"m. c #42A41B",
"M. c #478827",
"N. c #51832E",
"B. c #429622",
"V. c #45942B",
"C. c #518D33",
"Z. c #499435",
"A. c #40A120",
"S. c #978502",
"D. c #97840B",
"F. c #8F8814",
"G. c #B59612",
"H. c #B6A60B",
"J. c #B9A21B",
"K. c #948721",
"L. c #A79936",
"P. c #BFB336",
"I. c #DAAF01",
"U. c #D4B401",
"Y. c #DCB500",
"T. c #D5BB00",
"R. c #DCBB00",
"E. c #DCB709",
"W. c #DFB312",
"Q. c #C2A906",
"!. c #E1B400",
"~. c #E4BC00",
"^. c #E7B707",
"/. c #F3BA01",
"(. c #C6B427",
"). c #C3B538",
"_. c #D7BF37",
"`. c #DDC200",
"'. c #E4C302",
"]. c #EDCD00",
"[. c #E9C707",
"{. c #F2C403",
"}. c #F4CB01",
"|. c #FCCE01",
" X c #FDCE0A",
".X c #F4C709",
"XX c #EDD202",
"oX c #EADA00",
"OX c #E2D000",
"+X c #F5D400",
"@X c #FCD501",
"#X c #F4DA01",
"$X c #FDDB01",
"%X c #F3D40C",
"&X c #FDD40B",
"*X c #F6DA0B",
"=X c #FDDB0B",
"-X c #ECC617",
";X c #FFCD1E",
":X c #F6C913",
">X c #E8D915",
",X c #FCD312",
"<X c #FCDB13",
"1X c #FDDA1D",
"2X c #F4D715",
"3X c #F6E302",
"4X c #FFE303",
"5X c #FEE20A",
"6X c #FCE212",
"7X c #FBE712",
"8X c #DDCD25",
"9X c #DDCC34",
"0X c #E6C827",
"qX c #FBCB25",
"wX c #FCD623",
"eX c #F5DE24",
"rX c #FEDC23",
"tX c #FDDB2F",
"yX c #E6C735",
"uX c #ECD938",
"iX c #F7DA36",
"pX c #FEE224",
"aX c #FCE12E",
"sX c #FCE33B",
"dX c #F4F83F",
"fX c #909454",
"gX c #B2B34E",
"hX c #AFAA6A",
"jX c #C5B449",
"kX c #CDBD5B",
"lX c #D8C34B",
"zX c #C5C35E",
"xX c #EACB49",
"cX c #E4D657",
"vX c #EED844",
"bX c #FDF555",
"nX c #DBCF63",
/* pixels */
"l.5.p.-.-.>.=.-.:.%.a.p.| 5.b.) =.1.) c.n.n.c.c.n.>.+.a.&.:.=.8.3.*.@.%.&.2.+.=.",
"4.*.#.+.;.;...#.i.#.&.e.@.3.N 4 6 6 t t 6 6 8 8 6 B i.e.r.#.O.$.$.p.%.O.;.7.+.i.",
"O.#.-.-.7.9.+.-.O.O.%.#.y.s.S X   O > > O O : : X F 8.u.r.#.@.t.:.:.-.+.%.7.:.-.",
"@.#.u.#.+.3.s.p.&.7.h.1.1.v.M X   . . . . X .   X D c.o.v.b.=.#.:.+.-.y.-.:.:.#.",
"p.2.&.y.e.r.p.5.3.n 6 4 7 7 0 { D.S.S.S.S.S.S.D.` * 5 5 5 6 C u.+.-.#.-.i.&.#.-.",
"$.2.6.i.r.r.2.5.7.n X > : X u cX1X<X=X6X6X5X6XaXlX=   > > X B u.;.:.#.#.r.#.#.-.",
"+.:.6.;.#.#.7.9.V.m O + + . 3 xX@X|.@X@X+X@X@X2X(.+ . . . X F k.%.:.-.e.@.e.i.#.",
"#.=.;.:.-.u.>.j e h U R ' R { yX X@X@X@X&X&X X,X0XT T R R U y d c 6.&.*.p.p.t.#.",
"@.@.#.#.-.x.b.8 O 0 vX5X=XtXtX&X X@X+X%X@X@X|.@X&XrXpX6XpX_.. a l h.6.5.*. .#.#.",
"3. .r.#.:.v.N.5   1 [.@X@X}.+X$X=X=X=X#X@X$X@X@X@X+X+X@X$XY.+ . h C.V.9.3.#.:.:.",
"<.O.r.;.G h i J J I }.$X@X&X*X].].].[.XXXXXX}.{.@X+X@X+X4X`.L J x e g f.q.%.%.:.",
",.i.@.6.D     N.bX%X=X@X&X&X%XT.R.Y.R.T.T.T.W.^.Y.2X<X%X@X3X>XbX! X & B 4.#.i.+.",
"=.r.t.z.D % O W eX+X@X&X&X|.&X`.R.!.R.R.T.E.W.^.^.&X&X+X&X@X@X3X^ X & G B.7.#.:.",
"u.| w.7.m X o W eX+X$X@X|.|.}.R.~.~.'.'.`.'.~././.{.@X@X@X|.}.4XQ   & M.z.#.#.-.",
"=.@.e.7.Y X   { tX}.$X*X.X/.~.#X;X&X@X$X#X#X@X@X X^.~.].$X@X|.=X^   & G 2.#.r.#.",
"x.y.e.0.H     E pX@X+X2X-XI.~.>XqX|.@X@X@X#X$X@X;X~.T.OX*X+X%X6XQ o & G s.@.@.#.",
"| 4.D A P 2 < } tXoXoX*X].!.~.,X@X$X+X@X@X@X&X&X}.'.~.}.$X+X@X$X' $ 0 A z V p.@.",
"r.g.w X 0 kXxXqX,X].`.'.].|.=X,X@X@X@X=X@X=X@X@X&X+X}.=X5X=X$X$XyXcXgXX X j 0.*.",
"r.V.r X = 9X<X@X$X+XR.Y.{.@X@X@X@X@X@X@X@X@X@X=X+X@X=X$X5X$X+X+X@XeX).. X h 9.+.",
"#.Z.r . 2 0X@X@X@X@X~.!.{.@X@X@X@X@X@X@X@X@X@X@X@X+X@X$X$X$X$X$X$X@X(.@ . e B.#.",
"@.f.r . 3 9X&X@X@X@X!.!..X&X@X@X@X@X@X@X@X@X@X@X$X$X@X$X4X$X$X$X|.@X(.$ . e 8.#.",
"r.h.7   < xXwX X&X%XR.R.{.,X@X+X@X@X@X$X$X@X@X@X@X+X+X$X4X$X+X+X@X1X).+   h m.@.",
"@.k.r   3 yX2X+X%X%X`.R.{.&X*X*X@X@X@X@X@X@X@X@X$X+X@X4X4X4X$X@X+X>XP.#   k j.e.",
"r.g.r   u 0X#X@X$X2XR.!.}.@X+X%X@X@X@X@X@X@X@X@X+X@X@X$X$X4X@X@X+X6X(..   Z l.e.",
"r.h.r   3 8XoX#X$X XR.!.|.@X@X+X@X@X@X@X@X@X@X@X$X@X$X$X5X$X+X$X@X=X(.o X k g.r.",
"r.b.7 X ; cXsX<X@X+X!.!..X X$X#X@X@X=X@X=X@X@X+X+X@X$X$X5X=X@X$XrXvXjXo X f 0.#.",
" .8.j h x P K G.<X@X}.-X^./.].#X@X@X$X@X@X@X$X$X@X$X$X$X$X$X+X$X} K J i h b :.#.",
"y.+.V.M.( X . ' rX#X#X1XqXI.`.%X+X@X@X+X$X+X@X+X$X=X5X$X+X+X+X5XQ . % _ f.0.@.#.",
"*.7.;.;.V &   [ tX#X#X2X[.U.~.*X@X+X@X@X+X@X@X+X@X4X5X$X$X+X+X5X^ X & G 4.#. .$.",
"*.7.+.8.o.&   ] pX#X#X*X.X].].*X$X4X#X4X$X$X$X4X#X@X$X@X$X@X+X$X!   & B 7.e.p.2.",
"i.+.+.:.9.4 X ] 6X+X@X&X&X$X@X<X4X4X4X4X4X4X4X4X4X$X@X#X@X@X+X4XP # & G i.@.O.7.",
"-.8.;.:.9.4   ] pX$X$X;X&X@X@X6X4X4X4X4X4X4X4X4X4X#X#X@X#X$X$X7X/ . % G :.+.-.>.",
";.;.;.8.,.f 4 ~ fXG.qXqXqXwX@X$X3X3X$X=X$X$X$X$X4XXXwX,X&X[.F.fXm 6 q 1.q.7.+.+.",
"#.=.#.O.,.k._ 7   < :X@X+X+X$X|.oX%X2X%X&X&X|.|.$X+X+X@X@XI.$ . j _ V.1.;.:.&.+.",
"#.#.y.&.4.6.v.6 O 1 iX4X3X3X,X&X*X+X&X&X@X,X,X,X=X5X4X$X5X0X+ > g C.1.9.s.O.O.s.",
"s.#.#.&.$.:.0.f % 0 L.H.H.H.Q.:X$X@X@X@X@X@X@X@X-XH.J.G.J.K.* O v B.6.X.:.r.i.r.",
"%.:.X.:.t.O.+.o.1.z O .   o 1 uX@X@X|.@X@X$X#X*X(.#   +   % m g.6.8.%.:.i.@.r.#.",
">.q.9.7.+.:.:.-.>.C X s a X ; nX1XwX1XwX1X*X6XaXzX% O O X % X.r.7.;.+.@.y.r.#.#.",
"=.0.9.9.:.3.&.#.=.n 4 , & 6 i hX).).jXjXjXjX).gXfX5 & 5 & 6 X.r.;.i.i.#.i.@.#.-.",
"+.;.X.X.2.X.......1.D ) V ) P   o o o o # + # o * ( Y Y ( ) 1.+...#.O.O.@. .+.O."
};
