/* XPM */
static char *xpm_[] = {
/* columns rows colors chars-per-pixel */
"40 40 240 2 ",
"   c #010103",
".  c #05050B",
"X  c #0A0A0E",
"o  c #07080B",
"O  c #0C0C12",
"+  c #080916",
"@  c #0E1019",
"#  c #12131B",
"$  c #141618",
"%  c #0E160D",
"&  c #1A2919",
"*  c #122E0C",
"=  c #213E17",
"-  c #0D1825",
";  c #151924",
":  c #1A1B24",
">  c #16132B",
",  c #1A1B2B",
"<  c #141425",
"1  c #1D1C31",
"2  c #1B1932",
"3  c #211C35",
"4  c #19262C",
"5  c #1E2333",
"6  c #1D2C38",
"7  c #16393A",
"8  c #1E3327",
"9  c #25272B",
"0  c #222335",
"q  c #252835",
"w  c #292D34",
"e  c #26253A",
"r  c #2A2B3C",
"t  c #262738",
"y  c #2A3635",
"u  c #36373D",
"i  c #29382F",
"p  c #341C17",
"a  c #4B281F",
"s  c #6D3A26",
"d  c #4A2D25",
"f  c #1C510D",
"g  c #26521A",
"h  c #24471A",
"j  c #237906",
"k  c #337F18",
"l  c #2C6E11",
"z  c #135238",
"x  c #15482C",
"c  c #394336",
"v  c #375638",
"b  c #284E2D",
"n  c #31702E",
"m  c #4F5108",
"M  c #49533F",
"N  c #4C562A",
"B  c #674B2D",
"V  c #50703D",
"C  c #2C2C41",
"Z  c #2C3343",
"A  c #2D344A",
"S  c #313542",
"D  c #353945",
"F  c #353B4E",
"G  c #393D4B",
"H  c #393A46",
"J  c #363952",
"K  c #443C4A",
"L  c #413840",
"P  c #1E564A",
"I  c #1C4C43",
"U  c #3B4547",
"Y  c #3C4253",
"T  c #2D4F48",
"R  c #1F6249",
"E  c #386548",
"W  c #2E6954",
"Q  c #366862",
"!  c #414547",
"~  c #45494D",
"^  c #48474A",
"/  c #564848",
"(  c #485549",
")  c #545749",
"_  c #4A4E52",
"`  c #454957",
"'  c #564E5C",
"]  c #4D5254",
"[  c #4D545A",
"{  c #455A56",
"}  c #52565A",
"|  c #545A5C",
" . c #555B57",
".. c #62595A",
"X. c #4A664A",
"o. c #55674C",
"O. c #4A6351",
"+. c #5B6255",
"@. c #596557",
"#. c #487259",
"$. c #577659",
"%. c #646B5A",
"&. c #68745F",
"*. c #776A58",
"=. c #4C5061",
"-. c #595D63",
";. c #555A68",
":. c #4A4E62",
">. c #5C6366",
",. c #497465",
"<. c #5A7364",
"1. c #4F7F71",
"2. c #616366",
"3. c #61656A",
"4. c #646B6B",
"5. c #686B68",
"6. c #6C7563",
"7. c #6A7767",
"8. c #747A6A",
"9. c #6B7274",
"0. c #6B757A",
"q. c #757D72",
"w. c #767978",
"e. c #6D6870",
"r. c #863515",
"t. c #8B4224",
"y. c #854836",
"u. c #8C564E",
"i. c #85756C",
"p. c #8F7872",
"a. c #AF7A70",
"s. c #8B6C5B",
"d. c #1E9400",
"f. c #2A8806",
"g. c #269405",
"h. c #2B9607",
"j. c #259904",
"k. c #2D9A07",
"l. c #2D9609",
"z. c #2E9A08",
"x. c #309C07",
"c. c #319609",
"v. c #329D08",
"b. c #359E09",
"n. c #329B08",
"m. c #389E0A",
"M. c #2D8814",
"N. c #379A14",
"B. c #328C13",
"V. c #2DA005",
"C. c #26A208",
"Z. c #32A306",
"A. c #36A009",
"S. c #33A109",
"D. c #37A70A",
"F. c #3CA417",
"G. c #369335",
"H. c #45951E",
"J. c #578B26",
"K. c #448531",
"L. c #6B8237",
"P. c #41A93B",
"I. c #5FAE44",
"U. c #72AC50",
"Y. c #48896E",
"T. c #5F8666",
"R. c #76816C",
"E. c #778577",
"W. c #7A937C",
"Q. c #6B8C69",
"!. c #72B560",
"~. c #86877D",
"^. c #949164",
"/. c #A8886A",
"(. c #AE8A76",
"). c #BA967B",
"_. c #AE8D7A",
"`. c #B9A27D",
"'. c #A4A774",
"]. c #828E54",
"[. c #C19A7C",
"{. c #DFA07D",
"}. c #737687",
"|. c #589B80",
" X c #658E86",
".X c #7C858B",
"XX c #7C9884",
"oX c #729D91",
"OX c #76A89B",
"+X c #66A58E",
"@X c #58AF8C",
"#X c #5FC4A3",
"$X c #848A88",
"%X c #88928A",
"&X c #858992",
"*X c #8C979A",
"=X c #919D99",
"-X c #AA8F8E",
";X c #B29885",
":X c #8BAA9C",
">X c #99A698",
",X c #90AA96",
"<X c #8BB4AB",
"1X c #94B1AB",
"2X c #A6BDB9",
"3X c #B7BAB1",
"4X c #ABAFA6",
"5X c #C29C86",
"6X c #C9A786",
"7X c #D4AC8C",
"8X c #D6B799",
"9X c #D1AF95",
"0X c #E4B18A",
"qX c #E3BB9D",
"wX c #DCBFAA",
"eX c #B3C1BB",
"rX c #DED298",
"tX c #D8C09E",
"yX c #DDC4A9",
"uX c #D3C4B2",
"iX c #E7C6A7",
"pX c #F3D3AD",
"aX c #E8CDBA",
"sX c #EBD4B9",
"dX c #F6CCA8",
"fX c #EBD6A2",
"gX c #ACBCC4",
"hX c #B7CACA",
"jX c #AFC2C1",
"kX c #CCD7D9",
"lX c #C2CEC5",
"zX c #F2DCC1",
"xX c #C8E8C6",
"cX c #F9E4CA",
"vX c #FDECD2",
"bX c #FCF1D6",
"nX c #FFF0C8",
"mX c #D7E1E2",
"MX c #E7F9F7",
"NX c #FAF8EF",
/* pixels */
"v.n.h.h.k.h.k.k.x.Z.k.k.z.z.k.h.x.h.h.g.z.m.n.h.k.l.l.k.k.h.v.k.A.n.k.n.v.l.l.k.",
"h.h.z.S.k.k.z.v.l.l.n.n.k.v.l.g.v.k.v.k.h.n.b.h.c.k.k.k.Z.z.l.k.z.z.h.x.v.n.k.z.",
"x.z.k.z.n.k.S.z.l.n.n.A.k.h.k.k.k.A.b.h.k.n.n.n.Z.k.v.l.c.n.k.k.l.x.z.k.l.S.x.n.",
"v.v.k.h.h.n.v.z.l.n.z.z.c.k.k.c.z.v.k.h.n.v.n.v.x.v.k.A.A.z.k.n.k.S.v.k.v.h.k.v.",
"n.c.z.z.v.k.k.z.z.c.S.v.h.h.S.V.k.n.c.z.v.S.v.v.c.c.n.x.A.v.l.n.z.k.l.g.l.k.h.k.",
"k.k.z.h.k.l.g.h.z.k.k.x.j.z.v.A.v.b.k.h.h.l.A.S.x.n.n.c.c.v.l.n.k.z.l.g.k.z.h.Z.",
"g.k.v.z.h.k.v.b.k.h.l.z.v.v.k.h.n.n.h.h.l.x.x.n.k.c.v.z.k.x.k.k.S.h.b.v.l.n.A.h.",
"h.z.n.Z.k.n.n.n.k.b.S.n.z.n.k.k.h.n.v.k.k.k.k.x.k.x.x.h.h.k.c.b.k.h.v.l.Z.x.k.c.",
"k.h.V.S.v.v.n.z.h.z.k.k.h.h.h.h.b.A.z.z.z.k.k.l.l.k.k.S.g.n.z.z.k.k.n.h.k.v.c.x.",
"h.k.l.z.n.n.l.v.A.z.h.l.k.j.z.h.n.b.V.h.c.c.z.k.x.k.k.z.v.v.h.h.n.k.k.z.z.V.x.l.",
"h.z.l.v.n.S.S.z.b.k.V.S.x.V.V.k.k.z.h.g.x.A.k.A.b.h.n.g.v.z.n.l.h.k.h.x.V.z.G.<.",
"j.j.h.z.z.v.l.v.A.k.l = & & h g k z.g.h.b.v.k.l.l.k.A.z.z.h.A.z.j.V.f.M.K.=.J , ",
"g.h.k.h.z.k.j.l.g & - 4 7 7 6 4 2 g A.k.n.v.n.l.k.k.z.z.S.c.z.C.M.B s _ J > 9 H ",
"h.v.z.n.k.l.h.g.4 T W Y.|.+XY.R I I B.b.b.h.n.k.k.n.g.C.d.U.R.m s u.y.d Z K H S ",
"z.z.z.z.A.v.Z.k 1.oX:XjX1XgX2X<XeXW n k.n.b.b.v.z.V.F.].'./.u.a.i.B r.a.}.c M.v ",
"v.z.k.n.n.l.x.n gX2XjXmX1X1XhXkXhX Xx k.k.b.v.x.h.j *.8X(.iXsX{.cXyXa.a.v g.Z.B.",
"b.v.z.h.h.j.f.R gX1XOXOXOX<XOX1X<X Xz g.k.h.v.B.n J 5.5X5X6XNX9XsXsXB j m.x.c.h.",
"l.z.h.l.h.k.f.#.Y.P W T I P ,.#.R R z M.k.V.f.Z J K u.9X8XcX8XvXcXtXc.V.x.c.x.c.",
"n.v.h.V.z.V.B.z - ~ -Xp.2 C ' K Z Z 7 n V.f.$.Y 3 t.r.[.pXiX0XsXcX8Xz.h.c.x.x.l.",
"n.v.z.v.v.V.B.6 2 K -X..2 C t e 6 5 > x v =.;.F 2 s t./.iXfXcXpX5XJ.k.l.x.h.h.x.",
"l.k.l.z.x.h.B.4 3 1 3 1 r e r r e 2 D =.:.G 5 5 Z / u.yX7X[.tX/.J.d.x.b.z.k.v.c.",
"k.z.k.c.c.b.b.8 3 e e 1 1 0 e 0 < ; G F e 6 r D C % N sX8X9X6XL.V.k.k.n.v.v.v.h.",
"k.k.h.k.x.m.Z.g 2 e 3 e H > @ + + r 5 J J F ` ; * f.H.).[.8X).V k.c.k.c.b.c.V.v.",
"x.k.k.c.x.Z.D.b > r 3 q H + . + > 6 Z Y [ w + f D.x.V.^.bXcX/.&XI.j.v.c.b.k.h.k.",
"h.A.n.k.z.x.P.@X2 > + @ - + q C , 0 ` D %     % f.D.k i.NX3XR.~.Q.B.c.S.v.z.k.k.",
"h.l.l.v.z.k.G.#Xb < 5 5 > C A F Z Z q X         o g @.8.~.8.8.E.Q.6.Q.n.k.z.c.x.",
"k.z.V.h.k.k.b.G.q t S @ F J G Y # + r :             & ! %.W.W.Q.7.| }.( N.x.x.g.",
"k.h.z.z.h.Z.Z.j : S 0.S A F Y , < , w O X X             O 9 b X.%.@.>X~ X.k.x.h.",
"b.c.g.Z.V.k * 9 G < ! ` / / 9 , 0 ; < o   O @ o           . O 9 &.o.q.~ e.I.g.b.",
"k.A.D.K.h , J &Xe.*.;X/.yXvX-X# # , e < . o X O X o   o O X $ i o.4XMXXX=XxXg.c.",
"h.l _ ~ 0 y w.s.[.dXiXqXpXyX8X^ > 1 C _ # ; @ : $ O $ X O @ $ v <.kX:Xv T.lXP.g.",
"b.9 ' +.*.a.[.7XiXdXiXqXyXaXaXL , r | 4.9 @ @ w ) u : $ $ w : ! { { O.E $.W.K.S.",
"o.%Xw.6.wXzXiXiX7X0X{.6XyXiXwX^ D 3.-.-.} . . o 4.E.X.y 5 y ( { { { U 4 =X>Xp.!.",
"W.mX>.+.3XnXrXfXrXrXdX0X6X8X8X) >.3.-.} 3.u     w 9. .u q y { [ G =.*X*XMXR.XXxX",
"E.*X@.! ~.[./.`.6X;X_._.7XaXwX5.9.2.-. .} 2.$ o . c  .w w q Y $.,.$.{ +.6.( W.MX",
"XXE. .+.5.%.) ..) ~ ~ p a B p.e.-.| [ | _ } ! O + : ! H y D 4.&.&.&.$.) ) ) 7.>X",
">XE.;.) 6.%.E..X9.>.2._ L _ 2.>.-.] _ -.] ~ | H : . : r H  .6.8.$.$.$.X.v ( M ) ",
"7.XX>.%.q.8.q.w.3.3.3.! q.&X4. .} [ _ | } ! } -.3.! $ X ] 8.%.<.&.#.X.E M X.R.q.",
"o.q..X%X~.6.8.9.9.9. .( 0.0._ ] } [ [ } ^ ~ 9.3.9.5.( c q.6.7.] @.XX%X1XeX:X.X .",
"XX$.lX4X%X%./ ' } ' ] 9.>.>.] ^ -.} | 3. .[ 0.$X2.| ) ) $.$.>X6.>.0..X.X>.U ( 6."
};
