/* XPM */
static char *result[] = {
/* columns rows colors chars-per-pixel */
"20 20 131 2 ",
"   c #211008",
".  c #361B0E",
"X  c #2A1C13",
"o  c #432616",
"O  c #4A2E1C",
"+  c #502F1B",
"@  c #4F321E",
"#  c #54301B",
"$  c #59341D",
"%  c #443024",
"&  c #4D3220",
"*  c #563621",
"=  c #563823",
"-  c #5C3B24",
";  c #553B29",
":  c #5C3F2A",
">  c #523E32",
",  c #613B23",
"<  c #693D22",
"1  c #603E28",
"2  c #40501C",
"3  c #46432F",
"4  c #59472A",
"5  c #5B4C2C",
"6  c #5E572F",
"7  c #64442C",
"8  c #6A452C",
"9  c #6F482D",
"0  c #714A2F",
"q  c #61552E",
"w  c #664730",
"e  c #694731",
"r  c #664C34",
"t  c #6D4B33",
"y  c #644B3A",
"u  c #6E4F39",
"i  c #714F35",
"p  c #6E5038",
"a  c #735136",
"s  c #795337",
"d  c #755239",
"f  c #7A563A",
"g  c #705E3B",
"h  c #7D593D",
"j  c #496423",
"k  c #5B692E",
"l  c #5F7132",
"z  c #5C7D30",
"x  c #616533",
"c  c #606933",
"v  c #60613E",
"b  c #6B6D39",
"n  c #756E3C",
"m  c #677239",
"M  c #6A793B",
"N  c #4C4642",
"B  c #645245",
"V  c #6F5544",
"C  c #7F5D42",
"Z  c #6F5F52",
"A  c #626142",
"S  c #77604F",
"D  c #7A7947",
"F  c #814B2A",
"G  c #805335",
"H  c #825C3E",
"J  c #855E41",
"K  c #856245",
"L  c #8C6444",
"P  c #85644A",
"I  c #896649",
"U  c #8E6C4E",
"Y  c #936746",
"T  c #916847",
"R  c #946A4A",
"E  c #996D4B",
"W  c #9D714E",
"Q  c #826753",
"!  c #8E6B50",
"~  c #886F5C",
"^  c #957252",
"/  c #997453",
"(  c #95765E",
")  c #9D7A58",
"_  c #A06E49",
"`  c #A1734F",
"'  c #A37652",
"]  c #A77853",
"[  c #AC7C55",
"{  c #B17F58",
"}  c #867263",
"|  c #907D6E",
" . c #4A9624",
".. c #519028",
"X. c #589E30",
"o. c #658439",
"O. c #6A833D",
"+. c #648C39",
"@. c #67993C",
"#. c #699C3E",
"$. c #62A438",
"%. c #6DB73F",
"&. c #718C43",
"*. c #729445",
"=. c #79944A",
"-. c #7A9949",
";. c #6CA441",
":. c #6DAC42",
">. c #78A546",
",. c #71AD45",
"<. c #79A84D",
"1. c #71B045",
"2. c #75B049",
"3. c #7EBD4C",
"4. c #7DB851",
"5. c #A6815E",
"6. c #B4855E",
"7. c #80B752",
"8. c #83BD53",
"9. c #AE8A66",
"0. c #82C04B",
"q. c #84C353",
"w. c #88C457",
"e. c #87C458",
"r. c #8BC35B",
"t. c #90C161",
"y. c #92CD64",
"u. c #9CC66F",
"i. c #9CD361",
"p. c #97D069",
"a. c None",
/* pixels */
"a.a.a.a.a.a.a.a.a.a.a.a.a.a.a.a.a.a.a.a.",
"a.a.%.q.r.w.w.w.3.w.p.y.e.8.4.q.0.i.a.a.",
"a. .X.2.8.8.-.M :.1.1.r.t.7.1.%.1.w.u.a.",
"a...j *.4.,.M 6 #.c ;.q.t.8.&.z $.>.D a.",
"a.2 3 v m +.O.5 c 5 +.&.<.=.g q k b C a.",
"a.o > r f n b i e r k 4 x A V f e d K a.",
"a.$ * s ' J f L t e : w w B V J h J ) a.",
"a.$ @ i Y P P J 7 p i d J f d f h ^ 9.a.",
"a.F 8 0 K ~ } h H ] [ H ` 6.L H L E ) a.",
"a.# , L 5.' R L f h I t L E H f H / / a.",
"a., 7 i L L H L d w f L R J H h d f I a.",
"a.# 9 8 0 H a w w a d h H f R [ E I ^ a.",
"a.O 0 s L [ Y h W L e W [ h H ` ( | I a.",
"a., 8 i Y ] ' W Y U Z W ` H t H ! Q p a.",
"a.$ = s K L W ' E K S K J h t d L ' U a.",
"a.O - f H H K Y ` K s t L f a K W 6.5.a.",
"a.o 7 9 f J d i J H L H E H a L W ' ^ a.",
"a.. o * G G : ; y : Y _ s f h s h L K a.",
"a.a.  $ < $ + % N O - 1 # O - 7 - & X a.",
"a.a.a.a.a.a.a.a.a.a.a.a.a.a.a.a.a.a.a.a."
};
