/* XPM */
static char *xpm_[] = {
/* columns rows colors chars-per-pixel */
"40 40 230 2 ",
"   c #030103",
".  c #0A0104",
"X  c #010801",
"o  c #05030A",
"O  c #0A030A",
"+  c #0D0A0D",
"@  c #080A0B",
"#  c #12050B",
"$  c #130A0D",
"%  c #1C090F",
"&  c #081604",
"*  c #1A1E08",
"=  c #15110C",
"-  c #0C0B11",
";  c #0F0714",
":  c #130C12",
">  c #1A0C13",
",  c #160614",
"<  c #1B1213",
"1  c #1C111A",
"2  c #181715",
"3  c #23141C",
"4  c #2A161F",
"5  c #2B1C1E",
"6  c #210619",
"7  c #16290B",
"8  c #1E340E",
"9  c #192A12",
"0  c #21240F",
"q  c #23241C",
"w  c #2A2C18",
"e  c #30321D",
"r  c #2B331C",
"t  c #1C1823",
"y  c #2B1D22",
"u  c #291B26",
"i  c #33172D",
"p  c #2C2226",
"a  c #2A2822",
"s  c #312424",
"d  c #34292B",
"f  c #2E3826",
"g  c #33362B",
"h  c #3C2B34",
"j  c #3E3433",
"k  c #3E323C",
"l  c #3E3C36",
"z  c #42343C",
"x  c #463439",
"c  c #432932",
"v  c #1C4F0A",
"b  c #285517",
"n  c #29461A",
"m  c #2F631B",
"M  c #3E5238",
"N  c #3D7824",
"B  c #376429",
"V  c #474539",
"C  c #50413E",
"Z  c #475739",
"A  c #53533C",
"S  c #4A6837",
"D  c #4B7E36",
"F  c #54643F",
"G  c #473A43",
"H  c #4A3C45",
"J  c #4B3F48",
"K  c #423640",
"L  c #523D44",
"P  c #4C4849",
"I  c #54434C",
"U  c #5A494A",
"Y  c #54554A",
"T  c #5B4C54",
"R  c #584954",
"E  c #5F5057",
"W  c #5E515A",
"Q  c #4C5341",
"!  c #625355",
"~  c #695657",
"^  c #645A57",
"/  c #62545C",
"(  c #6A5559",
")  c #66585F",
"_  c #6C595B",
"`  c #725C5F",
"'  c #61455B",
"]  c #576449",
"[  c #59744A",
"{  c #5B7C49",
"}  c #557A43",
"|  c #5B6751",
" . c #5A7852",
".. c #617A49",
"X. c #64625A",
"o. c #606757",
"O. c #75605F",
"+. c #627453",
"@. c #6A7A5E",
"#. c #665A62",
"$. c #6C5C63",
"%. c #665761",
"&. c #735E62",
"*. c #785E65",
"=. c #6E6164",
"-. c #6E6169",
";. c #736365",
":. c #7A6466",
">. c #74646B",
",. c #7B656A",
"<. c #756B6B",
"1. c #7C6A6E",
"2. c #7D6867",
"3. c #777769",
"4. c #766770",
"5. c #7B6C73",
"6. c #7D6A76",
"7. c #7C7274",
"8. c #777175",
"9. c #826B6E",
"0. c #807D6E",
"q. c #846E72",
"w. c #846F75",
"e. c #847276",
"r. c #8B7576",
"t. c #84747A",
"y. c #8B767A",
"u. c #867C7C",
"i. c #8B7B7C",
"p. c #90757B",
"a. c #937A7E",
"s. c #907375",
"d. c #2A8E04",
"f. c #2E8D0B",
"g. c #298A09",
"h. c #33890B",
"j. c #259502",
"k. c #2B9504",
"l. c #269A02",
"z. c #2D9A04",
"x. c #2D940A",
"c. c #269B09",
"v. c #2E9B0A",
"b. c #319607",
"n. c #319C05",
"m. c #32950B",
"M. c #329C0B",
"N. c #38960D",
"B. c #3A8C15",
"V. c #3A8B1A",
"C. c #378716",
"Z. c #2F9B11",
"A. c #349512",
"S. c #3B9416",
"D. c #359B12",
"F. c #3A9B14",
"G. c #3C921B",
"H. c #3A9C19",
"J. c #2CA203",
"K. c #2DA10A",
"L. c #31A106",
"P. c #34A10B",
"I. c #36AA0B",
"U. c #3AA412",
"Y. c #3F8C24",
"T. c #3D9422",
"R. c #418E1D",
"E. c #44931E",
"W. c #438C25",
"Q. c #448329",
"!. c #478B29",
"~. c #449222",
"^. c #4A9D29",
"/. c #479929",
"(. c #50922E",
"). c #4D8535",
"_. c #4B8C31",
"`. c #55863C",
"'. c #58963C",
"]. c #60943F",
"[. c #568543",
"{. c #5D8549",
"}. c #5A9044",
"|. c #628949",
" X c #68984C",
".X c #6A8755",
"XX c #708C5C",
"oX c #6D9D55",
"OX c #679950",
"+X c #74965B",
"@X c #5DA247",
"#X c #6AA74A",
"$X c #789662",
"%X c #7F8770",
"&X c #7B8C68",
"*X c #829B6A",
"=X c #888976",
"-X c #908E7F",
";X c #8A9672",
":X c #83A36A",
">X c #8C7B82",
",X c #8E7B84",
"<X c #927D81",
"1X c #997D81",
"2X c #8C8386",
"3X c #938384",
"4X c #998285",
"5X c #9B858A",
"6X c #95898B",
"7X c #9C8B8B",
"8X c #958688",
"9X c #9C9687",
"0X c #9B8B91",
"qX c #958891",
"wX c #A1868B",
"eX c #A18C8F",
"rX c #A48D93",
"tX c #A88F95",
"yX c #A59294",
"uX c #AC959A",
"iX c #AE9B9C",
"pX c #A79398",
"aX c #A3968E",
"sX c #B39EA3",
"dX c #BA9BA1",
"fX c #AC9BA1",
"gX c #B8A8A8",
"hX c #AFA9AB",
"jX c #C4AEB0",
"kX c #C6AEAF",
/* pixels */
"z.z.z.z.N.N.b.P.J.l.z.x.f.x.v.c.D.H.m.x.v.M.v.k.k.v.z.c.c.P.c.m.D.m.D.v.j.l.z.J.",
"z.z.z.v.M.M.v.z.I.L.z.D.D.x.j.z.m.M.M.k.z.b.j.x.v.z.z.b.v.v.x.v.b.x.j.k.M.U.P.z.",
"l.k.b.m.M.L.L.z.P.c.k.k.m.b.J.l.z.M.k.k.M.n.P.U.P.k.k.k.M.k.m.k.l.J.z.D.D.N.z.v.",
"l.j.m.D.P.L.L.L.U.x.n.U.m.k.z.z.k.M.k.d.M.F.M.N.F.A.B.h.R.R./.B.f.x.x.m.m.d.x.b.",
"c.c.v.M.z.z.z.n.F.b.z.z.z.N.N.N.d.A.g.G.^.E.~.W.N ). X:X:XXX+X$X$XoX'.V.h.b.n.n.",
"c.j.c.v.z.k.z.b.M.U.M.c.P.m.h.!.'.@X'.`. XoXoX+X+X*X;X;X=X9X-X3.%X%X:XoX(.R.N.S.",
"j.c.z.z.n.b.M.m.M.M.c.v.M.E.].*X+.f r * 0 e w 3.=X0.9XaX-X8Xi.7XrX3X=X3.&X+X_.V.",
"j.z.z.k.n.N.b.k.c.x.D.x.S.#X.Xe d P L I I L ( 4XwXq.yXwXwXsXa.3Xs.,Xy.>.=X=X{ {.",
"l.c.L.n.n.k.b.N.z.b.g.T.oXS * V T L x h 4 c wXs.9.s.wXtXtXs.wXuX<Xt.i.X.7.3.E X.",
"c.J.z.n.M.M.M.n.j.H.V. XZ = j j 4 # , 3 % U wXdXa.wX9.s.tXtXtX<X0X6X8X<.<.=.) 5.",
"n.z.k.M.P.P.J.z.j.C.}. .< h d 1 d > < < % ,.q.9.s.kX-X=Xe.7XiX5X6X2X8.u.u.=.! ! ",
"n.z.N.M.v.z.J.J.x.W.XXM R i 1 p p # $ $ < i.iXy.s.s.9.sXiXu.3X3XhX8.>.qXu.;.;.! ",
"n.n.M.M.x.k.c.c.h. XY U ' # 3 2 . ; o . y t.w.,.uX4X<X8X0X3XpX8.,X,X,XqX6X8.$.$.",
"n.n.m.x.x.c.c.A.~.].V &.6 i :   O   . . s 7Xe.,.w.y.wXrXe.2XqXu.pX4.4.qX6X7.4.%.",
"n.n.m.f.x.Z.x.f.'...A C 3 , .       O . s 3X1.1Xp.*.a.uXi.rX5.t.pXqXw.4.$.5.7.4.",
"z.z.m.x.c.x.x.C. X] A s % .         . . 5 2.~ eXiXq.s.*.q.sX3Xi.>Xt.4.,Xt.$.T I ",
"l.z.k.N.z.k.x.V..XA V < . o   X       . < e.:.~ O.r.kX1X9.9.,.rX0X$.t.6.$.$.8.R ",
"K.v.b.M.n.n.M.W..XP M + o .     X       + ;.3X9XO.2.4Xr.tXwXq.y.w.#.4.5.#.#.$.R ",
"K.P.b.M.n.n.n.E..XY g . .             . . U 3X3X:.3X9.9.rX1X9.>X>.#.;.>X4.W R J ",
"k.v.z.n.n.z.z.B..XY q               O < < h ;.~ y.kXyX:.~ :.y.q.6.>.$.#.R 8.4.J ",
"x.v.v.v.z.z.z.B.|.| q   X         o O # > 5 ;.y.;.3Xy.a.fXe.>.,.t.$.6.=.E R I G ",
"b.M.x.z.z.z.L.F.[.| 9 . . X   - o . : 1 3 # x ,.4X,._ y.jXw.,.e.) $.5.6.R -.G G ",
"b.M.k.v.z.L.L.H.).[ y .     o t ; ; 1 1 3 > 5 T 0XuX9.( &.&.4XsX1.$.6.U E -.-.J ",
"z.b.x.b.v.M.P.H.!.{ a . o O o t o . ; + # > # x $.>.>.uXq._ 5.5X*.$.t.) P E -.z ",
"z.z.m.M.n.M.M.A.C.`.V . . : o o o o o o O O O O T &.>XsXw.,.I x / $.6.) I H h G ",
"l.l.b.N.n.z.M.m.d.D @.> o O ; o o - @ o   . O . y =.e.t.,.9.wX` $.T ) I #.=.J G ",
"J.J.m.m.v.M.D.D.k.V...l   - o ; o o @ o o o o . $ h =.;._ 9.uXp.$.4.W P #.2XT k ",
"l.J.M.m.M.P.D.x.k.S.} | & . O o o o   o o o o @ : : z e.u._ :.;.4.t.#.R H W R K ",
"l.z.m.m.v.v.k.x.b.N._.{.M X o o o     o o o o o   . $ j =.;.~ ! 4.qX-.G #.P k k ",
"l.z.x.D.L.k.k.n.n.H.h.Q..Xf   o   o o o   o o o   @ . . a Y ^ <.W -.W J #.-.P k ",
"z.k.v.v.b.z.k.n.x.U.g.T.`..Xg o   o o   o o o o o o   @ $ < g P W #.W R P J K K ",
"n.n.v.k.z.M.L.k.M.c.K.C.Y.[. .M             o o o X X X 8 [ n 8 f M Y P P K P K ",
"k.v.M.k.z.c.M.v.k.M.x.x.V.~.W.[.] u   o         X X & v Q././.V.b 8 7 7 9 9 & 7 ",
"b.v.v.v.v.L.v.z.v.D.x.d.A.H.A.Y. .| Q n q : + = & n N W.H.v.b.m.(.D N m b b m B ",
"M.k.k.z.z.P.j.z.v.m.k.k.F.H.N.A.T.Y.).} ] | X.Q Z D Y.Z.k.j.M.M.M.k.k.F././.T.T.",
"P.z.z.M.v.n.z.z.z.z.k.m.M.M.m.A.c.g.T._.`.} { S D Q.A.c.J.z.b.z.L.J.l.z.j.j.c.D.",
"M.b.L.b.L.K.z.z.z.z.M.b.m.b.m.U.Z.Z.A.A.E.B.B.E.F.N.k.z.v.k.x.H.j.l.c.v.v.g.x.D.",
"z.v.P.k.z.z.L.z.n.L.z.M.b.b.v.D.m.x.c.z.l.z.k.n.n.n.n.z.M.m.m.x.P.z.k.k.U.D.m.m.",
"z.x.n.k.z.z.z.z.L.v.z.n.z.z.b.b.b.n.P.J.l.l.J.z.P.P.U.z.z.n.L.n.n.z.M.z.c.M.k.k.",
"v.z.z.k.j.M.z.z.L.z.z.M.v.v.b.M.n.P.z.l.J.l.l.v.b.v.b.z.k.l.L.z.L.z.P.z.k.v.k.P."
};
