/* XPM */
static char *result[] = {
/* columns rows colors chars-per-pixel */
"40 40 44 1 ",
"  c #178E05",
". c #1D8F07",
"X c #169505",
"o c #1C9506",
"O c #1D9A07",
"+ c #328D0D",
"@ c #209507",
"# c #219B07",
"$ c #249608",
"% c #2A960A",
"& c #259B09",
"* c #2C9C0A",
"= c #32940D",
"- c #3C950F",
"; c #339D0C",
": c #3A9D0E",
"> c #3B8810",
", c #3E9710",
"< c #3F9A10",
"1 c #1FA307",
"2 c #21A107",
"3 c #25A208",
"4 c #2CA20A",
"5 c #2FA90B",
"6 c #34A30C",
"7 c #3BA40E",
"8 c #35AA0C",
"9 c #3CAA0E",
"0 c #3BB10E",
"q c #3EA010",
"w c #448912",
"e c #439111",
"r c #439F11",
"t c #40A50F",
"y c #41AB0F",
"u c #41B00F",
"i c #44A510",
"p c #4AA612",
"a c #44AB10",
"s c #4AAC12",
"d c #44B110",
"f c #4BB312",
"g c #53B414",
"h c #56B814",
/* pixels */
"f64+-4;@49;69466*;6tt988y7*&*yt:+#*$&6@$",
"04@77$&66*O#6;%67;7%::766OO6;7;;i77:o$$@",
"t8*6t&6s6;#$;;34*%7&6;679*&6#966t6t8*&4:",
"67*4sttd*:;;&*9*:tt&&;7hyt04#697r*7*6$48",
"3680ti77t;6444a77h;#8t6779s:;677e:789746",
"640s:6a778;6;;q&;s**8y4;t8;ss9s;;766#969",
"6$;:;66779$:aa**6t;7tt9ys6*77*6;;#ot7t94",
"6a77;49997:t77&4*4#&:9s9*#37*o=%*ooasi6$",
"qa77:=77*686d6$64&;*74;;@.&6;=77;$696;7&",
"66*66==&@6*;7779;3749$%@@7*447h7&4666sp6",
"9;;:9r,:%;**6s96**i;*:7$;t8$o999;$6*;y6*",
";i76*;;;#O9&*6577$7;;i7itu77*6976679667*",
"6t46*667*d9$66$77#7*496a4&77u:64*7;*;46o",
"#t40d97*$6&*i&@47$7%47%8#::7as#*%4*q*&6$",
"**;977;#9*4*s&**7667;779*74t8t&;i4464969",
"7*9saa67a&**6*66-*46698&;46s*74ti6*##i;;",
"ttt7is7r4&$9$6969&#347867#$7;6839*$&*793",
":i*$:f*7&77a6yf*76$o&*%69&4;*76o$:@*dta7",
"*6**99*&**=;sf74*t77$7=66t988a97*7**0sq&",
"7at&*996*#&;p::@o:;6duy6&:*6376ti91#9g7$",
"7a7@177s*&;46764%;*#656it7*7***6a6 *7ti*",
";6;*o66t688*4794;434&=*494=t$$;is6698&t:",
"6$$66778t&*76:46*309;ia794o;99&6s7744;87",
"8**6uy73;*48&76*6=i;4=ts*;*4784ttt*@77O6",
"*4;647i#;6*;%7y;677t7;8dt4@*s3*4*6&466$7",
"4o&$;$=@6667t*t9*6767t6798&67;77#X*9**76",
"s$4&4666*4;q4*;6$;a;&t:&*:85877:%;76a*7t",
"i;6;34*q44,:46;767s;#;9*674&66;697476&:r",
"9q@*&7%$6**67a;*4*7a*7;6674&*=6879$4X4,<",
"99#;=4#4a6*6;;*64*8i6q47%*#6*;q4a77* 687",
"6987*#4a7#16;*7;79799964;76:7;**s6*7=69*",
"s69<;@;sa4O&6ai*4*762O$=6:;7s964a*77;7s9",
"a;7677a66;t6*7;63o#*3o;7*;669t76a6*48a4;",
"677777t48tud97;;&*39;#X*&*6#69:=7;34@699",
";ia;6&@$sisas#;66#&7;**9*;$;66*%@&4;=@sa",
"qai9*t=;*:e6**;;=$&64677$;676$@$%$6iw:8q",
"677f=7*&&*6*&6*6p:=;7686;*77ty9;;*9tqt96",
"66&7;7o46;6o;;*4;7>779u9%8#:ut666*;aa6;6",
"99#477*4t+:@&$;4&6;4t;77O&%69766a6*t6664",
"t94;7;7o;66tt&t96&76f9$%&;9**:7*i686$&$#"
};
