/* XPM */
static char *result[] = {
/* columns rows colors chars-per-pixel */
"40 40 123 2 ",
"   c #1A1A17",
".  c #1D1E1B",
"X  c #1F201C",
"o  c #21211E",
"O  c #252521",
"+  c #272823",
"@  c #2A2B26",
"#  c #2D2E28",
"$  c #302D26",
"%  c #33312B",
"&  c #38362D",
"*  c #353C2F",
"=  c #353532",
"-  c #383734",
";  c #3D3C34",
":  c #3D3D3B",
">  c #403B31",
",  c #403E38",
"<  c #3E4336",
"1  c #454134",
"2  c #41403C",
"3  c #4A473F",
"4  c #444F3C",
"5  c #534D3D",
"6  c #46513E",
"7  c #464541",
"8  c #464B40",
"9  c #4D4C45",
"0  c #4D4D4A",
"q  c #554E41",
"w  c #4A5642",
"e  c #565143",
"r  c #54524E",
"t  c #505E48",
"y  c #5C5D4C",
"u  c #555553",
"i  c #5E5D59",
"p  c #605944",
"a  c #615A48",
"s  c #685F4C",
"d  c #5F624D",
"f  c #5D6655",
"g  c #6B624D",
"h  c #696353",
"j  c #6A6B56",
"k  c #62615C",
"l  c #6B665B",
"z  c #766B51",
"x  c #796E57",
"c  c #716C5A",
"v  c #7D735B",
"b  c #646462",
"n  c #6D6B67",
"m  c #6E6D6B",
"M  c #746F63",
"N  c #736F68",
"B  c #787261",
"V  c #75726C",
"C  c #767571",
"Z  c #787672",
"A  c #7C7973",
"S  c #7E7D7B",
"D  c #84775C",
"F  c #877A5E",
"G  c #8B7F62",
"H  c #837C6A",
"J  c #8E8163",
"K  c #8C836D",
"L  c #928566",
"P  c #9B8C6B",
"I  c #81817E",
"U  c #A4946D",
"Y  c #AB9A71",
"T  c #B19F74",
"R  c #B7A477",
"E  c #B6A47A",
"W  c #B9A678",
"Q  c #C2AE7E",
"!  c #868582",
"~  c #888784",
"^  c #8B8984",
"/  c #8D8C8B",
"(  c #93918D",
")  c #959491",
"_  c #989793",
"`  c #9B9892",
"'  c #9D9C9A",
"]  c #B7AA8D",
"[  c #A1A19F",
"{  c #BDB193",
"}  c #A5A4A3",
"|  c #A8A8A7",
" . c #ADACAB",
".. c #B1B1AF",
"X. c #B4B4B3",
"o. c #B8B7B7",
"O. c #BBBBBA",
"+. c #CDB782",
"@. c #D1BB86",
"#. c #D3BD89",
"$. c #C5B798",
"%. c #D7C089",
"&. c #DAC28B",
"*. c #E4CC91",
"=. c #EAD095",
"-. c #F0D698",
";. c #F5DA9A",
":. c #FADE9B",
">. c #FEE29D",
",. c #D6C6A3",
"<. c #C5C5C4",
"1. c #C8C7C6",
"2. c #C7C8C7",
"3. c #CBCBCB",
"4. c #CFD0D0",
"5. c #D3D3D3",
"6. c #DBDBDB",
"7. c #E4E4E4",
"8. c #E8E8E7",
"9. c #EDEDED",
"0. c #F2F2F2",
"q. c #F8F8F7",
"w. c #FBFBFB",
/* pixels */
"w.w.9.w.w.0.q.w.0.0.w.q.9.w.w.0.0.w.q.9.w.w.9.q.w.0.0.w.q.0.w.w.9.w.w.0.q.w.0.9.",
"w.w.9.q.w.0.q.w.q.0.w.q.0.q.w.0.q.w.q.0.w.w.0.q.w.0.q.w.q.9.w.q.9.q.w.0.q.w.q.0.",
"0.q.w.0.0.w.w.9.q.w.0.0.w.0.0.w.w.0.q.w.0.0.w.q.0.w.w.0.w.w.0.0.w.q.0.w.w.0.q.w.",
"9.q.w.q.0.w.q.0.q.w.0.q.w.q.0.w.q.9.w.w.0.0.w.0.9.w.w.9.w.w.9.q.w.0.0.w.q.9.q.w.",
"w.q.9.w.w.0.0.w.0.0.w.q.0.w.w.0.0.w.0.0.w.w.9.w.w.0.0.w.0.0.w.w.0.w.w.0.0.w.q.9.",
"w.q.0.q.w.0.q.w.0.0.w.w.5.8.w.9.q.w.q.q.w.w.0.q.w.0.q.w.q.9.w.w.9.q.w.0.q.w.q.0.",
"0.q.w.q.0.w.w.9.q.0.7.0.} S 4.<.w.7.<.' ) [ 5.q.0.w.q.0.w.w.9.q.w.q.0.w.q.0.q.w.",
"9.0.w.q.9.w.w.0.w.4.0 b 0 @ 0 S | 0 + O O O - ~ 8.w.q.0.q.w.0.0.w.0.0.w.w.9.w.w.",
"w.w.0.q.w.0.q.w.q.9.m . O @ . O + + # # # # $ o S 9.q.w.0.9.w.w.0.q.w.0.0.w.q.9.",
"w.w.9.w.w.0.0.w.q.9.} . O @ o O # # # # # @ % @ O [ q.w.q.0.w.q.9.w.w.0.q.w.q.0.",
"9.q.w.q.9.w.w.9.q. .= . O o O # # # # # # # @ O O 7 7.0.q.w.0.0.w.q.0.w.w.0.q.w.",
"9.q.w.0.0.w.w.0.q.9...= . . # # # # # @ @ + o ; ; O o.0.q.w.0.q.w.0.0.w.q.9.q.w.",
"w.w.9.w.w.0.q.w.0.q.2.u @ O @ # @ o o o o % x #.&.z [ w.q.0.w.q.9.w.w.0.0.w.q.9.",
"w.w.0.w.w.0.0.w.0.0.q.9.b O @ @ o & g J P R =.>.>.&.^ q.0.0.w.q.0.q.w.0.q.w.q.0.",
"0.0.w.0.0.w.q.0.q.w.0.9.u o O O o L *.=.:.:.>.>.>.:.H 7.q.w.0.q.w.q.0.w.q.0.q.w.",
"9.q.w.q.0.w.w.9.w.w.0.8.0 O O o 5 %.>.>.:.>.:.>.#.U B 2.w.w.0.0.w.0.0.w.w.9.w.w.",
"w.q.0.w.w.0.q.w.0.0.w.9.r o O   z >.>.>.>.>.>.+.l m , O.q.0.w.w.9.w.w.0.0.w.0.0.",
"w.q.0.q.w.0.0.w.0.0.w.q.b o O X g W G v U >.>.Y / f - | q.0.w.q.0.q.w.0.q.w.q.0.",
"0.0.w.q.0.w.q.0.w.w.0.q.( . + X a V / ! A +.>.W / I : } w.w.0.0.w.q.0.w.w.0.q.w.",
"9.q.w.0.0.w.q.0.w.w.0.q.<.O X O e  .! 0 ) R >.=.B C : O.w.w.0.0.w.0.0.w.q.9.q.w.",
"w.q.0.q.w.0.0.w.0.0.q.w.5.9 $   5 ) 3.' I Q -.=.*.U V 0.q.0.w.w.9.w.w.0.q.w.0.0.",
"w.w.0.q.w.0.q.w.q.0.w.q.6.c G s v h A A L :.>.;.R B 3.w.0.0.w.q.0.w.w.0.0.w.q.0.",
"0.0.w.0.0.w.q.0.q.w.0.q.w.! G x F P P E &.#.U p 0 6.w.0.q.w.0.0.w.q.0.w.w.9.q.w.",
"0.q.w.q.0.w.q.0.q.w.0.0.w.6.C m S h 5 1 1 & ; * ; 2.w.9.w.w.0.q.w.0.0.w.q.0.q.w.",
"w.q.9.q.w.0.0.w.q.9.w.w.9.w.q.8.q.5.0 , 8 4 < < < m 8.w.w.0.w.w.9.w.w.0.0.w.0.0.",
"w.q.0.q.w.0.q.w.0.0.w.w.9.w.w.0.w.| 7 7 C t j K 6 = u I 5.0.w.q.0.q.w.0.q.w.q.0.",
"0.q.w.q.0.w.w.0.q.w.0.0.w.q.0.w.3.h G r ` f j $.d 6 + + / w.0.0.w.q.0.w.w.0.q.w.",
"0.0.w.0.0.w.q.9.w.w.0.0.w.q.0.9.N P 5 k ( f g ,.{ ; . + ' w.9.q.w.0.0.w.q.9.q.w.",
"w.q.9.w.w.0.0.w.0.0.w.w.0.w.w.5.h @.q 2 0 w y ] A k C  .8.0.w.q.0.w.w.0.q.w.0.0.",
"w.q.0.w.w.0.q.w.0.0.w.w.9.w.w.9._ h ( u # # 9 Z X.8.q.w.q.0.w.w.9.w.w.0.0.w.q.0.",
"0.q.w.q.0.w.w.0.w.w.0.0.w.q.0.w.q.5.9.i + % ~ 0.q.w.q.9.w.w.0.0.w.q.0.w.q.0.q.w.",
"0.0.w.0.0.w.q.9.q.w.0.q.w.0.8.9.8.6.7.b O - O.0.9.w.w.9.w.w.0.0.w.0.0.w.w.9.q.w.",
"w.q.0.q.w.0.0.w.q.0.w.9.6.5.5.2.2.5.3.C O u <.4.5.6.9.w.0.0.w.q.0.q.w.0.0.w.q.0.",
"w.w.0.q.w.0.0.w.0.0.q.6.<.3.4.2.3.5.2.O.) ..1.4.4.1.6.w.q.0.w.q.0.q.w.0.q.w.q.9.",
"0.0.w.0.0.w.w.9.w.w.0.7.6.3.2.4.3.2.3.5.2.3.4.2.3.6.9.0.q.w.0.0.w.q.0.w.w.9.w.w.",
"9.q.w.q.0.w.q.0.w.w.0.0.w.8.7.7.6.5.6.6.5.6.8.8.8.q.q.0.q.w.0.q.w.0.0.w.q.0.q.w.",
"w.q.0.q.w.0.q.w.0.0.w.q.0.q.w.0.0.w.q.9.w.q.9.w.w.0.q.w.0.0.w.q.0.q.w.0.0.w.q.9.",
"w.q.9.w.w.0.0.w.0.0.w.w.0.q.w.0.q.w.q.9.w.w.0.w.w.0.0.w.0.0.w.q.0.q.w.0.q.w.q.0.",
"0.q.w.q.0.w.w.0.w.w.0.0.w.0.0.w.q.9.w.w.0.0.w.w.0.w.q.0.q.w.0.q.w.0.0.w.w.0.q.w.",
"9.q.w.0.9.w.w.9.w.w.0.q.w.0.0.w.w.9.w.w.9.q.w.0.0.w.w.9.w.w.0.0.w.q.0.w.q.9.q.w."
};
