/* XPM */
static char *xpm_[] = {
/* columns rows colors chars-per-pixel */
"40 40 212 2 ",
"   c #000005",
".  c #04030B",
"X  c #09070E",
"o  c #0D0B13",
"O  c #090811",
"+  c #110E15",
"@  c #110B19",
"#  c #111017",
"$  c #15141A",
"%  c #17181C",
"&  c #1C2F1A",
"*  c #181421",
"=  c #1C1B22",
"-  c #1E172B",
";  c #201D24",
":  c #241E31",
">  c #1D2124",
",  c #252329",
"<  c #262727",
"1  c #263324",
"2  c #2D2C32",
"3  c #302D35",
"4  c #32323A",
"5  c #38353A",
"6  c #483C3B",
"7  c #284F1F",
"8  c #295A1A",
"9  c #286516",
"0  c #2C7713",
"q  c #2B4725",
"w  c #3A4F34",
"e  c #3C7F27",
"r  c #43742C",
"t  c #3D3944",
"y  c #392F43",
"u  c #42374B",
"i  c #49444C",
"p  c #474348",
"a  c #594C4C",
"s  c #4E4B51",
"d  c #514F54",
"f  c #524F59",
"g  c #5C585D",
"h  c #665A5C",
"j  c #755557",
"k  c #576951",
"l  c #68605E",
"z  c #77625D",
"x  c #697E53",
"c  c #6A6466",
"v  c #766967",
"b  c #7B716A",
"n  c #797378",
"m  c #836C65",
"M  c #8D746A",
"N  c #967468",
"B  c #837C7C",
"V  c #8C7A76",
"C  c #816E79",
"Z  c #A47B6B",
"A  c #1A8B00",
"S  c #1A9300",
"D  c #2B8E09",
"F  c #258A06",
"G  c #259403",
"H  c #2B9607",
"J  c #269A01",
"K  c #2D9B06",
"L  c #2D9508",
"P  c #2E9A08",
"I  c #279209",
"U  c #319D07",
"Y  c #309708",
"T  c #329C09",
"R  c #389D0A",
"E  c #329707",
"W  c #2E8015",
"Q  c #328119",
"!  c #378C17",
"~  c #369214",
"^  c #3A9719",
"/  c #2EA105",
"(  c #31A205",
")  c #34A109",
"_  c #38A408",
"`  c #3CA217",
"'  c #3E9123",
"]  c #418E1F",
"[  c #478F2F",
"{  c #4B932C",
"}  c #47992A",
"|  c #50823E",
" . c #4D9436",
".. c #589A3B",
"X. c #4C8735",
"o. c #54A734",
"O. c #589345",
"+. c #538C42",
"@. c #6A944D",
"#. c #6AA257",
"$. c #76AF5C",
"%. c #7EA172",
"&. c #96837C",
"*. c #8B917E",
"=. c #888176",
"-. c #A8937F",
";. c #8BA877",
":. c #7D7A82",
">. c #878385",
",. c #998D89",
"<. c #9C938D",
"1. c #969885",
"2. c #8F8E94",
"3. c #9F8D95",
"4. c #929395",
"5. c #9E9592",
"6. c #98959B",
"7. c #AC948E",
"8. c #A9958C",
"9. c #BA9A8A",
"0. c #A59893",
"q. c #B69C93",
"w. c #AB8C8A",
"e. c #8BA883",
"r. c #9FAE9A",
"t. c #AEA299",
"y. c #B4A298",
"u. c #B2B094",
"i. c #A8A8AA",
"p. c #B3ACAA",
"a. c #B8AAA5",
"s. c #BAB1AB",
"d. c #ACAAB1",
"f. c #ABA7B2",
"g. c #B1ADB5",
"h. c #BBBABD",
"j. c #B4B3B7",
"k. c #C89B87",
"l. c #DBA58D",
"z. c #C4A698",
"x. c #DAAC97",
"c. c #DEB19A",
"v. c #C0BC9A",
"b. c #E7B39C",
"n. c #C3ABA1",
"m. c #C3B1A6",
"M. c #CBB2A4",
"N. c #C7B1AB",
"B. c #D8B9A9",
"V. c #C2B6B0",
"C. c #CBB6B6",
"Z. c #D8B0B1",
"A. c #E3BEAC",
"S. c #EABEB4",
"D. c #A0CC92",
"F. c #B4DAA7",
"G. c #B6C8AD",
"H. c #D2C0B3",
"J. c #D6C4B9",
"K. c #DBC9B8",
"L. c #EBCEBC",
"P. c #E4C9B5",
"I. c #F3CBBB",
"U. c #F3D2BD",
"Y. c #F9C5AA",
"T. c #BEBDC2",
"R. c #B8B2C0",
"E. c #C0BEC3",
"W. c #C1BAC9",
"Q. c #C3C2C6",
"!. c #CBCACD",
"~. c #C6C5CB",
"^. c #DBCDC2",
"/. c #CBD2CB",
"(. c #CECDD1",
"). c #CFC6D5",
"_. c #D1CFD4",
"`. c #D2C8DA",
"'. c #D2D1D4",
"]. c #D5D3D9",
"[. c #DAD9DC",
"{. c #DDD0C5",
"}. c #E6D2C2",
"|. c #EBD1C3",
" X c #EDDAC8",
".X c #F2DCCB",
"XX c #F6D8C4",
"oX c #DFEBDB",
"OX c #FAE1CD",
"+X c #F5E3CF",
"@X c #F5E4D4",
"#X c #FAE5D3",
"$X c #FEE9D4",
"%X c #FEEBDA",
"&X c #F7E9DB",
"*X c #DEDCE1",
"=X c #DBD2E2",
"-X c #E1DAE7",
";X c #E3E2E5",
":X c #E6E5E9",
">X c #E9E6EC",
",X c #EBEAED",
"<X c #FFF3E2",
"1X c #EDECF2",
"2X c #EFE6F4",
"3X c #F0EEF4",
"4X c #F3EAFA",
"5X c #F3F2F6",
"6X c #F6F4F9",
"7X c #FAF4FD",
"8X c #FDFDFE",
"9X c #F8FBF7",
/* pixels */
"K P T ) K P T T ) T T T U T P K H P T K F 8 q 9 0 Q ~ K K K P T T G T T T / ) K ",
"K L K ) K P U U K ) ) K L U K K K T ( 9 3 : u y > < q P J P Y T K K P H ) T K T ",
"K H P ) T T T L H H P K K H H L T _ 0 u s 8.XX&Xp.d y 9 / Y T K K U P K / T P P ",
"J P P K U U U T P K H K G K P K R R < i 9.L.&X%X%X@Xa.b D T H K U K K K G T ) P ",
"H L Y U T T L U _ T K Y P J H P / 0 - m l.|.@X&X$X$X#XI.@.J T H P K H P / ( T U ",
"L L K T T ) ) K T T K P T H P L P 7 $ b b.P. X@X%X#X$XU.u.I T I H P K K P K Y T ",
"K J L K K T T T T T T T H P T P K 1 # s v B.}.@X.X#X#XXXB.] ( U J T H K H I T T ",
"K G K K K U L T ) P P P T P Y T Q % # 2 t 0.B.&X<XXXJ.P.S.@.J Y H P T K U K T T ",
"G H K G K K K K U T U K ) ) J D 1 @ + , 4 7.x.V.g.K.M.s.B.8.J K K P P T U K H Y ",
"I P T H P T P I L Y T T J ! #.e 1 X o $ s x.x.B 3 p m.B.s.J.W J K P L U T T Y P ",
"K P P ) T H T K L T H G  ._.).h.5 + o   h b.q.B M.b u =.=.g w / K H K P R T U / ",
"K T K K ) T / ( G T U I /.*Xh.(.n ,.,.X N x.y.9.v >.N V h n @./ P T T / _ U T T ",
"P K T Y T ) T U G T G $.2XQ.:Xh.!.&.b a Z A.8.h b =.w.Y.t.C X.J I ) U T T U U T ",
"H K / U Y I Y U P ) G G.3X[.,X!.p.V B c Z B.B.z.Z k.l.b.}.V ] / H P K T U I T K ",
"R U T H L G K U T U ~ [.:X>X>X*Xp.q.,.c M A.L.XXL.A.U.U.OXL.^ K H P K L U H L H ",
"T T L L H K L H L (  .-X:X>X8X,X4.N.z.5 v n.P..XOX$X$XXX+X$X;.S H H H Y Y K T Y ",
"H P G P H G P H L U +.=X,X3X8X5X4.0.M.2 d b 8.C..XL.q.z.P.<Xu.L T H K K P K U U ",
"P T H ) P P P T U G %.W.;X7X8X8X6.6.N.* 3 s n &.s.9.-.$Xz..XP.R K T K K K T L L ",
") T K P P / Y R T H oX_.[.8X8X8Xd.0.z o ; 4 d s g b M &.+XXXP.~ U K P H T T H K ",
"T T P K ) K T T K ] 6X].'.8X8X8XT.h.u   $ # X X + $ 5 a &.|. X^ J T P H L K K U ",
"H P K P T L H T J } 5X!.!.8X7X8X(.'.i   o o , z v a a a & x Z.^ J H P T K K T T ",
"P K P H U U ( T / } >X[.(.8X7X8X[.].i   o   t c.q.n.A.7.q H r D K K T T P P R H ",
"H H K T T T ) T (  .[.[.'.8X7X8X[.*X:.. # + % z z.z.q.=.Q ) / J R T T H T ) P K ",
"P T H P T R T ) G #.`.].Q.8X7X8X:X*Xg   # < = = 2 6 j r ( H T U T Y H T T P / P ",
"K I L K U T T T A e.8X[.Q.8X9X8X9XE.i X # # % % @ +   & R K H T T K K U T K T T ",
"U K K Y L T T R A i.8X;Xj.8X5X7X8X(.>.O $ % # % $ o + 1 0 ^ H T K K T T T K G P ",
"K _ U U K T T J ' f.5X9Xj.7X6X8X8X:X2.% o > $ o $ + o 5 s.@.J P K K Y Y T H P H ",
"I K L K K P K J  .=X*X8Xh.6X9X7X8X5Xg.d . % # O o + , ^.N.! J H T K T ) T T / T ",
"H L U T U T L J +.7X3X7XT.,X7X6X8X8Xj.d.= o # # # O 5.}.,.u. .J T P T T U K Y U ",
"U U K K P K T G O.7X8X8X~.].8X5X9X8X].d.c O O O   5 %X}.<.C.1.I G K T P K K L G ",
"K K K I L U T J O.7X8X8X[.T.8X5X6X8X9X4.n 4 = , 2 0.OX|.J.s.C.! J L U K K U U D ",
"K K K K K U T J } 1X8X8X1XQ.7X5X1X6Xh.T.n n g.1X[.P.@X{.{.B.a.O.J P K L K U K Y ",
"R L I ) H ) H P G D.8X9X8XQ.1X6X1X'.!.(.*X6X8X8X,XH.^.s.J.^.C.{ / U I U K U L K ",
"U T T T U ) H K J T oX8X8X!.~.8X,X;X6Xg.6X8X6X5X1Xa.B.a.t.0.<.^ J U K K L I K U ",
"U T ) U T T K K L J ` F.8X7Xj.:X8X8X,Xj.6X5X7X9X8X3.7.8.<.w.;.G P K K K U I K L ",
"H H H U L K K K R ) P S o.F.(.[.7X8X:X~.6X(.:X3X=Xk k s.C.,...J T K K L U ) J L ",
"K K K L H Y K K T P P ) K G } ].:X8X5X5X8Xi.R.~.O.G T [ [ I K K P K T T P T H T ",
"/ T K K P T L I P P P K ) T S ;.3X1X8X7X'.g.j.{ S P _ ( J K I I K Y T K U I Y _ ",
"T L K T T K K P H T P I P ) K I !.7X`.f.f.;.D J T P T R K U K T Y T K H R U K R ",
"T L G T K H G P K T T P P P L J } r.4.e.{ S U T T P K T K K H ) K K K H R U T T "
};
